<?xml version="1.0" encoding="utf-8"?>
<!-- Generator: Adobe Illustrator 14.0.0, SVG Export Plug-In . SVG Version: 6.00 Build 43363)  -->
<!DOCTYPE svg PUBLIC "-//W3C//DTD SVG 1.1//EN" "http://www.w3.org/Graphics/SVG/1.1/DTD/svg11.dtd">
<svg version="1.1" id="圖層_1" xmlns="http://www.w3.org/2000/svg" xmlns:xlink="http://www.w3.org/1999/xlink" x="0px" y="0px"
	 width="300px" height="300px" viewBox="0 0 300 300" enable-background="new 0 0 300 300" xml:space="preserve">
<g display="none">
	<circle display="inline" fill="#FFFFFF" cx="151.485" cy="59.835" r="58.988"/>
	<g display="inline">
		<path fill="#00AFAD" d="M196.837,43.749h-35.98c-3.057,0-5.535,2.479-5.535,5.535v5.445h-8.857v-5.445
			c0-3.057-2.479-5.535-5.536-5.535h-35.981c-3.057,0-5.536,2.479-5.536,5.535v18.545c0,3.057,2.479,5.535,5.536,5.535h35.981
			c3.057,0,5.536-2.478,5.536-5.535v-5.444h8.857v5.444c0,3.057,2.479,5.535,5.535,5.535h35.98c3.058,0,5.536-2.478,5.536-5.535
			V49.284C202.374,46.227,199.895,43.749,196.837,43.749"/>
		<path fill="#FFFFFF" d="M140.86,63.705c0,2.915-2.363,5.279-5.28,5.279h-26.137c-2.916,0-5.28-2.364-5.28-5.279V53.672
			c0-2.916,2.364-5.28,5.28-5.28h26.137c2.917,0,5.28,2.364,5.28,5.28V63.705z"/>
		<path fill="#FFFFFF" d="M197.887,63.705c0,2.915-2.365,5.279-5.281,5.279h-26.137c-2.917,0-5.28-2.364-5.28-5.279V53.672
			c0-2.916,2.363-5.28,5.28-5.28h26.137c2.916,0,5.281,2.364,5.281,5.28V63.705z"/>
		<g>
			<defs>
				<path id="SVGID_1_" d="M196.837,43.749h-35.98c-3.057,0-5.535,2.479-5.535,5.535v5.445h-8.857v-5.445
					c0-3.057-2.479-5.535-5.536-5.535h-35.981c-3.057,0-5.536,2.479-5.536,5.535v18.545c0,3.057,2.479,5.535,5.536,5.535h35.981
					c3.057,0,5.536-2.478,5.536-5.535v-5.444h8.857v5.444c0,3.057,2.479,5.535,5.535,5.535h35.98c3.058,0,5.536-2.478,5.536-5.535
					V49.284C202.374,46.227,199.895,43.749,196.837,43.749"/>
			</defs>
			<clipPath id="SVGID_2_">
				<use xlink:href="#SVGID_1_"  overflow="visible"/>
			</clipPath>
			<polygon opacity="0.2" clip-path="url(#SVGID_2_)" fill="#FFFFFF" points="197.225,38.497 86.677,77.725 92.79,36.713 			"/>
		</g>
	</g>
	<g display="inline">
		<circle fill="#FFFFFF" cx="244.025" cy="245.824" r="55.024"/>
		<path fill="#F2A665" d="M276.25,228.416h-11.293c-0.641-9.549-8.568-17.1-18.278-17.1s-17.638,7.551-18.279,17.1h-11.525
			c-2.575,0-4.662,2.087-4.662,4.661v35.75c0,2.576,2.087,4.664,4.662,4.664h59.376c2.576,0,4.663-2.088,4.663-4.664v-35.75
			C280.913,230.502,278.826,228.416,276.25,228.416z M250.448,262.61h-7.771v-24.869h7.771V262.61z M233.996,228.416
			c0.624-6.457,6.063-11.505,12.683-11.505c6.62,0,12.059,5.048,12.684,11.505H233.996z"/>
		<g>
			<defs>
				<path id="SVGID_3_" d="M277.25,228.416h-11.293c-0.641-9.549-8.568-17.1-18.278-17.1s-17.638,7.551-18.279,17.1h-11.525
					c-2.575,0-4.662,2.087-4.662,4.661v35.75c0,2.576,2.087,4.664,4.662,4.664h59.376c2.576,0,4.663-2.088,4.663-4.664v-35.75
					C281.913,230.502,279.826,228.416,277.25,228.416z"/>
			</defs>
			<clipPath id="SVGID_4_">
				<use xlink:href="#SVGID_3_"  overflow="visible"/>
			</clipPath>
			<polygon opacity="0.2" clip-path="url(#SVGID_4_)" fill="#FFFFFF" points="273.715,206.653 204.08,286.237 203.769,216.913 			
				"/>
		</g>
	</g>
	<g display="inline">
		<circle fill="#FFFFFF" cx="55.024" cy="238.38" r="55.024"/>
		<g>
			<path fill="#F7B029" d="M65.378,242.577c-4.952-2.672-13.352-4.43-22.882-4.43s-17.93,1.758-22.882,4.43h-4.692v5.907h0.021
				c0.453,5.393,12.611,9.714,27.553,9.714c14.942,0,27.1-4.321,27.552-9.714h0.022v-5.907H65.378z"/>
			
				<line fill="none" stroke="#FFFFFF" stroke-width="0.812" stroke-linecap="round" stroke-linejoin="round" x1="16.572" y1="244.209" x2="16.572" y2="249.882"/>
			
				<line fill="none" stroke="#FFFFFF" stroke-width="0.812" stroke-linecap="round" stroke-linejoin="round" x1="18.575" y1="245.918" x2="18.575" y2="251.593"/>
			
				<line fill="none" stroke="#FFFFFF" stroke-width="0.812" stroke-linecap="round" stroke-linejoin="round" x1="21.05" y1="247.318" x2="21.05" y2="252.992"/>
			
				<line fill="none" stroke="#FFFFFF" stroke-width="0.812" stroke-linecap="round" stroke-linejoin="round" x1="23.524" y1="248.484" x2="23.524" y2="254.157"/>
			
				<line fill="none" stroke="#FFFFFF" stroke-width="0.812" stroke-linecap="round" stroke-linejoin="round" x1="26.411" y1="249.65" x2="26.411" y2="255.323"/>
			
				<line fill="none" stroke="#FFFFFF" stroke-width="0.812" stroke-linecap="round" stroke-linejoin="round" x1="29.947" y1="250.66" x2="29.947" y2="256.333"/>
			
				<line fill="none" stroke="#FFFFFF" stroke-width="0.812" stroke-linecap="round" stroke-linejoin="round" x1="33.658" y1="251.125" x2="33.658" y2="256.8"/>
			
				<line fill="none" stroke="#FFFFFF" stroke-width="0.812" stroke-linecap="round" stroke-linejoin="round" x1="38.195" y1="251.826" x2="38.195" y2="257.499"/>
			
				<line fill="none" stroke="#FFFFFF" stroke-width="0.812" stroke-linecap="round" stroke-linejoin="round" x1="42.025" y1="251.981" x2="42.025" y2="257.655"/>
			
				<line fill="none" stroke="#FFFFFF" stroke-width="0.812" stroke-linecap="round" stroke-linejoin="round" x1="46.267" y1="251.67" x2="46.267" y2="257.343"/>
			
				<line fill="none" stroke="#FFFFFF" stroke-width="0.812" stroke-linecap="round" stroke-linejoin="round" x1="50.569" y1="251.514" x2="50.569" y2="257.189"/>
			
				<line fill="none" stroke="#FFFFFF" stroke-width="0.812" stroke-linecap="round" stroke-linejoin="round" x1="54.221" y1="250.893" x2="54.221" y2="256.566"/>
			
				<line fill="none" stroke="#FFFFFF" stroke-width="0.812" stroke-linecap="round" stroke-linejoin="round" x1="57.756" y1="250.193" x2="57.756" y2="255.867"/>
			
				<line fill="none" stroke="#FFFFFF" stroke-width="0.812" stroke-linecap="round" stroke-linejoin="round" x1="61.174" y1="249.105" x2="61.174" y2="254.779"/>
			
				<line fill="none" stroke="#FFFFFF" stroke-width="0.812" stroke-linecap="round" stroke-linejoin="round" x1="64.591" y1="247.784" x2="64.591" y2="253.458"/>
			
				<line fill="none" stroke="#FFFFFF" stroke-width="0.812" stroke-linecap="round" stroke-linejoin="round" x1="67.243" y1="245.997" x2="67.243" y2="251.67"/>
			
				<line fill="none" stroke="#FFFFFF" stroke-width="0.812" stroke-linecap="round" stroke-linejoin="round" x1="69.069" y1="243.898" x2="69.069" y2="249.572"/>
			<ellipse fill="#FEDA4C" cx="42.496" cy="242.81" rx="27.574" ry="10.025"/>
			<ellipse fill="#FFFFFF" cx="42.497" cy="242.81" rx="21.741" ry="7.904"/>
			<ellipse fill="#FEDA4C" cx="42.497" cy="242.81" rx="20.031" ry="7.283"/>
		</g>
		<g>
			<path fill="#F7B029" d="M65.378,234.183c-4.952-2.672-13.352-4.43-22.882-4.43s-17.93,1.758-22.882,4.43h-4.692v5.907h0.021
				c0.453,5.393,12.611,9.714,27.553,9.714c14.942,0,27.1-4.321,27.552-9.714h0.022v-5.907H65.378z"/>
			
				<line fill="none" stroke="#FFFFFF" stroke-width="0.812" stroke-linecap="round" stroke-linejoin="round" x1="16.572" y1="235.816" x2="16.572" y2="241.489"/>
			
				<line fill="none" stroke="#FFFFFF" stroke-width="0.812" stroke-linecap="round" stroke-linejoin="round" x1="18.575" y1="237.526" x2="18.575" y2="243.2"/>
			
				<line fill="none" stroke="#FFFFFF" stroke-width="0.812" stroke-linecap="round" stroke-linejoin="round" x1="21.05" y1="238.924" x2="21.05" y2="244.598"/>
			
				<line fill="none" stroke="#FFFFFF" stroke-width="0.812" stroke-linecap="round" stroke-linejoin="round" x1="23.524" y1="240.09" x2="23.524" y2="245.764"/>
			
				<line fill="none" stroke="#FFFFFF" stroke-width="0.812" stroke-linecap="round" stroke-linejoin="round" x1="26.411" y1="241.256" x2="26.411" y2="246.929"/>
			
				<line fill="none" stroke="#FFFFFF" stroke-width="0.812" stroke-linecap="round" stroke-linejoin="round" x1="29.947" y1="242.266" x2="29.947" y2="247.94"/>
			
				<line fill="none" stroke="#FFFFFF" stroke-width="0.812" stroke-linecap="round" stroke-linejoin="round" x1="33.658" y1="242.733" x2="33.658" y2="248.406"/>
			
				<line fill="none" stroke="#FFFFFF" stroke-width="0.812" stroke-linecap="round" stroke-linejoin="round" x1="38.195" y1="243.432" x2="38.195" y2="249.105"/>
			
				<line fill="none" stroke="#FFFFFF" stroke-width="0.812" stroke-linecap="round" stroke-linejoin="round" x1="42.025" y1="243.587" x2="42.025" y2="249.261"/>
			
				<line fill="none" stroke="#FFFFFF" stroke-width="0.812" stroke-linecap="round" stroke-linejoin="round" x1="46.267" y1="243.277" x2="46.267" y2="248.95"/>
			
				<line fill="none" stroke="#FFFFFF" stroke-width="0.812" stroke-linecap="round" stroke-linejoin="round" x1="50.569" y1="243.121" x2="50.569" y2="248.795"/>
			
				<line fill="none" stroke="#FFFFFF" stroke-width="0.812" stroke-linecap="round" stroke-linejoin="round" x1="54.221" y1="242.5" x2="54.221" y2="248.173"/>
			
				<line fill="none" stroke="#FFFFFF" stroke-width="0.812" stroke-linecap="round" stroke-linejoin="round" x1="57.756" y1="241.799" x2="57.756" y2="247.473"/>
			
				<line fill="none" stroke="#FFFFFF" stroke-width="0.812" stroke-linecap="round" stroke-linejoin="round" x1="61.174" y1="240.711" x2="61.174" y2="246.386"/>
			
				<line fill="none" stroke="#FFFFFF" stroke-width="0.812" stroke-linecap="round" stroke-linejoin="round" x1="64.591" y1="239.39" x2="64.591" y2="245.064"/>
			
				<line fill="none" stroke="#FFFFFF" stroke-width="0.812" stroke-linecap="round" stroke-linejoin="round" x1="67.243" y1="237.603" x2="67.243" y2="243.277"/>
			
				<line fill="none" stroke="#FFFFFF" stroke-width="0.812" stroke-linecap="round" stroke-linejoin="round" x1="69.069" y1="235.504" x2="69.069" y2="241.178"/>
			<ellipse fill="#FEDA4C" cx="42.496" cy="234.417" rx="27.574" ry="10.025"/>
			<ellipse fill="#FFFFFF" cx="42.497" cy="234.417" rx="21.741" ry="7.904"/>
			<ellipse fill="#FEDA4C" cx="42.497" cy="234.417" rx="20.031" ry="7.283"/>
		</g>
		<g>
			<path fill="#F7B029" d="M65.378,227.189c-4.952-2.672-13.352-4.43-22.882-4.43s-17.93,1.758-22.882,4.43h-4.692v5.906h0.021
				c0.453,5.393,12.611,9.715,27.553,9.715c14.942,0,27.1-4.322,27.552-9.715h0.022v-5.906H65.378z"/>
			
				<line fill="none" stroke="#FFFFFF" stroke-width="0.812" stroke-linecap="round" stroke-linejoin="round" x1="16.572" y1="228.821" x2="16.572" y2="234.495"/>
			
				<line fill="none" stroke="#FFFFFF" stroke-width="0.812" stroke-linecap="round" stroke-linejoin="round" x1="18.575" y1="230.531" x2="18.575" y2="236.205"/>
			
				<line fill="none" stroke="#FFFFFF" stroke-width="0.812" stroke-linecap="round" stroke-linejoin="round" x1="21.05" y1="231.93" x2="21.05" y2="237.603"/>
			
				<line fill="none" stroke="#FFFFFF" stroke-width="0.812" stroke-linecap="round" stroke-linejoin="round" x1="23.524" y1="233.095" x2="23.524" y2="238.769"/>
			
				<line fill="none" stroke="#FFFFFF" stroke-width="0.812" stroke-linecap="round" stroke-linejoin="round" x1="26.411" y1="234.261" x2="26.411" y2="239.935"/>
			
				<line fill="none" stroke="#FFFFFF" stroke-width="0.812" stroke-linecap="round" stroke-linejoin="round" x1="29.947" y1="235.272" x2="29.947" y2="240.945"/>
			
				<line fill="none" stroke="#FFFFFF" stroke-width="0.812" stroke-linecap="round" stroke-linejoin="round" x1="33.658" y1="235.738" x2="33.658" y2="241.412"/>
			
				<line fill="none" stroke="#FFFFFF" stroke-width="0.812" stroke-linecap="round" stroke-linejoin="round" x1="38.195" y1="236.438" x2="38.195" y2="242.111"/>
			
				<line fill="none" stroke="#FFFFFF" stroke-width="0.812" stroke-linecap="round" stroke-linejoin="round" x1="42.025" y1="236.592" x2="42.025" y2="242.266"/>
			
				<line fill="none" stroke="#FFFFFF" stroke-width="0.812" stroke-linecap="round" stroke-linejoin="round" x1="46.267" y1="236.282" x2="46.267" y2="241.956"/>
			
				<line fill="none" stroke="#FFFFFF" stroke-width="0.812" stroke-linecap="round" stroke-linejoin="round" x1="50.569" y1="236.126" x2="50.569" y2="241.799"/>
			
				<line fill="none" stroke="#FFFFFF" stroke-width="0.812" stroke-linecap="round" stroke-linejoin="round" x1="54.221" y1="235.504" x2="54.221" y2="241.178"/>
			
				<line fill="none" stroke="#FFFFFF" stroke-width="0.812" stroke-linecap="round" stroke-linejoin="round" x1="57.756" y1="234.806" x2="57.756" y2="240.479"/>
			
				<line fill="none" stroke="#FFFFFF" stroke-width="0.812" stroke-linecap="round" stroke-linejoin="round" x1="61.174" y1="233.717" x2="61.174" y2="239.39"/>
			
				<line fill="none" stroke="#FFFFFF" stroke-width="0.812" stroke-linecap="round" stroke-linejoin="round" x1="64.591" y1="232.396" x2="64.591" y2="238.07"/>
			
				<line fill="none" stroke="#FFFFFF" stroke-width="0.812" stroke-linecap="round" stroke-linejoin="round" x1="67.243" y1="230.608" x2="67.243" y2="236.282"/>
			
				<line fill="none" stroke="#FFFFFF" stroke-width="0.812" stroke-linecap="round" stroke-linejoin="round" x1="69.069" y1="228.51" x2="69.069" y2="234.183"/>
			<ellipse fill="#FEDA4C" cx="42.496" cy="227.421" rx="27.574" ry="10.026"/>
			<ellipse fill="#FFFFFF" cx="42.497" cy="227.421" rx="21.741" ry="7.906"/>
			<ellipse fill="#FEDA4C" cx="42.497" cy="227.421" rx="20.031" ry="7.283"/>
		</g>
		<g>
			<path fill="#F7B029" d="M65.378,220.66c-4.952-2.672-13.352-4.429-22.882-4.429s-17.93,1.757-22.882,4.429h-4.692v5.907h0.021
				c0.453,5.393,12.611,9.715,27.553,9.715c14.942,0,27.1-4.322,27.552-9.715h0.022v-5.907H65.378z"/>
			
				<line fill="none" stroke="#FFFFFF" stroke-width="0.812" stroke-linecap="round" stroke-linejoin="round" x1="16.572" y1="222.293" x2="16.572" y2="227.966"/>
			
				<line fill="none" stroke="#FFFFFF" stroke-width="0.812" stroke-linecap="round" stroke-linejoin="round" x1="18.575" y1="224.002" x2="18.575" y2="229.676"/>
			
				<line fill="none" stroke="#FFFFFF" stroke-width="0.812" stroke-linecap="round" stroke-linejoin="round" x1="21.05" y1="225.401" x2="21.05" y2="231.075"/>
			
				<line fill="none" stroke="#FFFFFF" stroke-width="0.812" stroke-linecap="round" stroke-linejoin="round" x1="23.524" y1="226.567" x2="23.524" y2="232.241"/>
			
				<line fill="none" stroke="#FFFFFF" stroke-width="0.812" stroke-linecap="round" stroke-linejoin="round" x1="26.411" y1="227.733" x2="26.411" y2="233.407"/>
			
				<line fill="none" stroke="#FFFFFF" stroke-width="0.812" stroke-linecap="round" stroke-linejoin="round" x1="29.947" y1="228.744" x2="29.947" y2="234.417"/>
			
				<line fill="none" stroke="#FFFFFF" stroke-width="0.812" stroke-linecap="round" stroke-linejoin="round" x1="33.658" y1="229.21" x2="33.658" y2="234.883"/>
			
				<line fill="none" stroke="#FFFFFF" stroke-width="0.812" stroke-linecap="round" stroke-linejoin="round" x1="38.195" y1="229.909" x2="38.195" y2="235.583"/>
			
				<line fill="none" stroke="#FFFFFF" stroke-width="0.812" stroke-linecap="round" stroke-linejoin="round" x1="42.025" y1="230.065" x2="42.025" y2="235.738"/>
			
				<line fill="none" stroke="#FFFFFF" stroke-width="0.812" stroke-linecap="round" stroke-linejoin="round" x1="46.267" y1="229.753" x2="46.267" y2="235.426"/>
			
				<line fill="none" stroke="#FFFFFF" stroke-width="0.812" stroke-linecap="round" stroke-linejoin="round" x1="50.569" y1="229.598" x2="50.569" y2="235.272"/>
			
				<line fill="none" stroke="#FFFFFF" stroke-width="0.812" stroke-linecap="round" stroke-linejoin="round" x1="54.221" y1="228.977" x2="54.221" y2="234.65"/>
			
				<line fill="none" stroke="#FFFFFF" stroke-width="0.812" stroke-linecap="round" stroke-linejoin="round" x1="57.756" y1="228.277" x2="57.756" y2="233.951"/>
			
				<line fill="none" stroke="#FFFFFF" stroke-width="0.812" stroke-linecap="round" stroke-linejoin="round" x1="61.174" y1="227.189" x2="61.174" y2="232.863"/>
			
				<line fill="none" stroke="#FFFFFF" stroke-width="0.812" stroke-linecap="round" stroke-linejoin="round" x1="64.591" y1="225.868" x2="64.591" y2="231.542"/>
			
				<line fill="none" stroke="#FFFFFF" stroke-width="0.812" stroke-linecap="round" stroke-linejoin="round" x1="67.243" y1="224.081" x2="67.243" y2="229.753"/>
			
				<line fill="none" stroke="#FFFFFF" stroke-width="0.812" stroke-linecap="round" stroke-linejoin="round" x1="69.069" y1="221.982" x2="69.069" y2="227.656"/>
			<ellipse fill="#FEDA4C" cx="42.496" cy="220.894" rx="27.574" ry="10.025"/>
			<ellipse fill="#FFFFFF" cx="42.497" cy="220.894" rx="21.741" ry="7.904"/>
			<ellipse fill="#FEDA4C" cx="42.497" cy="220.894" rx="20.031" ry="7.283"/>
		</g>
		<g>
			<path fill="#F7B029" d="M96.79,243.984c-3.562-5.267-10.528-11.705-19.092-17.218c-8.564-5.512-16.698-8.791-22.037-9.254
				l-4.217-2.715l-1.964,5.309l0.019,0.013c-1.386,5.109,8.104,16.024,21.533,24.668c13.428,8.644,25.792,11.791,27.992,7.207
				l0.019,0.013l1.964-5.309L96.79,243.984z"/>
			
				<line fill="none" stroke="#FFFFFF" stroke-width="0.812" stroke-linecap="round" stroke-linejoin="round" x1="52.383" y1="217.219" x2="50.497" y2="222.317"/>
			
				<line fill="none" stroke="#FFFFFF" stroke-width="0.812" stroke-linecap="round" stroke-linejoin="round" x1="53.615" y1="219.915" x2="51.729" y2="225.013"/>
			
				<line fill="none" stroke="#FFFFFF" stroke-width="0.812" stroke-linecap="round" stroke-linejoin="round" x1="55.375" y1="222.603" x2="53.488" y2="227.703"/>
			
				<line fill="none" stroke="#FFFFFF" stroke-width="0.812" stroke-linecap="round" stroke-linejoin="round" x1="57.21" y1="225.082" x2="55.324" y2="230.182"/>
			
				<line fill="none" stroke="#FFFFFF" stroke-width="0.812" stroke-linecap="round" stroke-linejoin="round" x1="59.417" y1="227.799" x2="57.532" y2="232.898"/>
			
				<line fill="none" stroke="#FFFFFF" stroke-width="0.812" stroke-linecap="round" stroke-linejoin="round" x1="62.258" y1="230.752" x2="60.373" y2="235.851"/>
			
				<line fill="none" stroke="#FFFFFF" stroke-width="0.812" stroke-linecap="round" stroke-linejoin="round" x1="65.439" y1="233.319" x2="63.553" y2="238.417"/>
			
				<line fill="none" stroke="#FFFFFF" stroke-width="0.812" stroke-linecap="round" stroke-linejoin="round" x1="69.285" y1="236.572" x2="67.399" y2="241.67"/>
			
				<line fill="none" stroke="#FFFFFF" stroke-width="0.812" stroke-linecap="round" stroke-linejoin="round" x1="72.675" y1="238.927" x2="70.789" y2="244.025"/>
			
				<line fill="none" stroke="#FFFFFF" stroke-width="0.812" stroke-linecap="round" stroke-linejoin="round" x1="76.591" y1="241.101" x2="74.705" y2="246.2"/>
			
				<line fill="none" stroke="#FFFFFF" stroke-width="0.812" stroke-linecap="round" stroke-linejoin="round" x1="80.508" y1="243.45" x2="78.622" y2="248.548"/>
			
				<line fill="none" stroke="#FFFFFF" stroke-width="0.812" stroke-linecap="round" stroke-linejoin="round" x1="83.998" y1="245.003" x2="82.111" y2="250.102"/>
			
				<line fill="none" stroke="#FFFFFF" stroke-width="0.812" stroke-linecap="round" stroke-linejoin="round" x1="87.408" y1="246.42" x2="85.521" y2="251.518"/>
			
				<line fill="none" stroke="#FFFFFF" stroke-width="0.812" stroke-linecap="round" stroke-linejoin="round" x1="90.841" y1="247.418" x2="88.954" y2="252.518"/>
			
				<line fill="none" stroke="#FFFFFF" stroke-width="0.812" stroke-linecap="round" stroke-linejoin="round" x1="94.351" y1="248.208" x2="92.464" y2="253.307"/>
			
				<line fill="none" stroke="#FFFFFF" stroke-width="0.812" stroke-linecap="round" stroke-linejoin="round" x1="97.328" y1="248.135" x2="95.442" y2="253.234"/>
			
				<line fill="none" stroke="#FFFFFF" stroke-width="0.812" stroke-linecap="round" stroke-linejoin="round" x1="99.667" y1="247.306" x2="97.78" y2="252.405"/>
			<path fill="#FEDA4C" d="M100.929,246.908c-1.841,4.976-14.428,1.868-28.115-6.939c-13.686-8.81-23.289-19.985-21.449-24.961
				c1.841-4.977,14.429-1.869,28.115,6.939C93.167,230.756,102.77,241.931,100.929,246.908z"/>
			<path fill="#FFFFFF" d="M95.687,243.534c-1.452,3.923-11.376,1.473-22.167-5.473c-10.791-6.945-18.363-15.757-16.912-19.68
				c1.452-3.924,11.377-1.474,22.168,5.473C89.566,230.798,97.138,239.611,95.687,243.534z"/>
			<path fill="#FEDA4C" d="M94.15,242.545c-1.337,3.614-10.482,1.356-20.425-5.043c-9.942-6.398-16.918-14.518-15.581-18.132
				c1.337-3.615,10.481-1.358,20.424,5.041S95.488,238.929,94.15,242.545z"/>
		</g>
	</g>
	<g display="inline">
		<g>
			<polygon fill="#FAE2CD" points="147.352,211.465 122.871,179.752 146.983,131.306 171.543,179.529 			"/>
			<polygon fill="#595758" points="147.085,153.6 135.96,153.653 146.985,131.502 158.213,153.549 			"/>
		</g>
		<g>
			<polygon fill="#C06367" points="171.958,280.266 122.906,280.494 122.441,179.753 133.259,190.473 147.567,179.639 
				161.254,190.343 171.495,179.529 			"/>
			<g>
				<g>
					<defs>
						<polygon id="SVGID_5_" points="171.958,280.266 122.906,280.494 122.441,179.753 133.259,190.473 147.567,179.639 
							161.254,190.343 171.495,179.529 						"/>
					</defs>
					<clipPath id="SVGID_6_">
						<use xlink:href="#SVGID_5_"  overflow="visible"/>
					</clipPath>
					
						<line clip-path="url(#SVGID_6_)" fill="none" stroke="#954A50" stroke-width="1.5042" stroke-linecap="round" stroke-linejoin="round" stroke-miterlimit="10" x1="132.987" y1="183.484" x2="133.435" y2="280.444"/>
				</g>
				<g>
					<defs>
						<polygon id="SVGID_7_" points="171.958,280.266 122.906,280.494 122.441,179.753 133.259,190.473 147.567,179.639 
							161.254,190.343 171.495,179.529 						"/>
					</defs>
					<clipPath id="SVGID_8_">
						<use xlink:href="#SVGID_7_"  overflow="visible"/>
					</clipPath>
					
						<line clip-path="url(#SVGID_8_)" fill="none" stroke="#954A50" stroke-width="1.5042" stroke-linecap="round" stroke-linejoin="round" stroke-miterlimit="10" x1="161.461" y1="183.353" x2="161.908" y2="280.313"/>
				</g>
				<g>
					<defs>
						<polygon id="SVGID_9_" points="171.958,280.266 122.906,280.494 122.441,179.753 133.259,190.473 147.567,179.639 
							161.254,190.343 171.495,179.529 						"/>
					</defs>
					<clipPath id="SVGID_10_">
						<use xlink:href="#SVGID_9_"  overflow="visible"/>
					</clipPath>
					
						<line clip-path="url(#SVGID_10_)" fill="none" stroke="#954A50" stroke-width="1.5042" stroke-linecap="round" stroke-linejoin="round" stroke-miterlimit="10" x1="147.288" y1="171.265" x2="147.791" y2="280.378"/>
				</g>
			</g>
		</g>
		<polygon opacity="0.48" fill="#B5B5B6" enable-background="new    " points="146.985,131.502 133.259,190.473 133.64,273.266 
			122.873,273.314 122.441,179.753 		"/>
		<polygon opacity="0.48" fill="#B5B5B6" enable-background="new    " points="147.108,132.262 147.567,179.639 147.995,272.48 
			122.87,272.597 122.441,179.753 		"/>
		<g>
			<path fill="#FAE2CD" d="M170.303,284.581c0.018,3.965-3.181,7.195-7.146,7.212l-30.868,0.142
				c-3.964,0.021-7.194-3.181-7.211-7.146l0,0c-0.019-3.964,3.18-7.194,7.146-7.211l30.868-0.144
				C167.057,277.417,170.287,280.617,170.303,284.581L170.303,284.581z"/>
			
				<rect x="121.221" y="272.46" transform="matrix(-1 0.0046 -0.0046 -1 295.8941 555.4801)" fill="#B5B5B6" width="52.162" height="11.246"/>
			<polyline fill="#9FA0A0" points="173.409,283.609 121.248,283.851 121.195,272.603 			"/>
			<path opacity="0.4" fill="#FAE2CD" enable-background="new    " d="M131.414,291.939c0,0-6.224-0.45-6.26-8.187l45.064-0.208
				C170.218,283.544,131.377,284.124,131.414,291.939z"/>
		</g>
	</g>
</g>
<g>
	<g>
		<path fill="#E8A743" d="M201.894,209.69c5.168-4.524,8.437-11.431,8.437-18.839c0-13.635-11.05-24.818-24.687-24.818
			c-13.636,0-24.688,10.987-24.688,24.621c0,7.412,3.267,14.542,8.438,19.067c-10.483,5.752-17.591,17.11-17.591,30.181h67.68
			C219.482,226.832,212.376,215.439,201.894,209.69z"/>
		<circle fill="#FFFFFF" cx="173.992" cy="186.429" r="2.773"/>
		<circle fill="#FFFFFF" cx="197.294" cy="186.429" r="2.773"/>
		<path fill="#FFFFFF" d="M196.182,196.337c0,6.534-4.532,7.21-10.124,7.21c-5.59,0-10.123-0.676-10.123-7.21H196.182z"/>
	</g>
	<g>
		<path fill="#E8A743" d="M259.175,209.69c5.171-4.524,8.439-11.431,8.439-18.839c0-13.635-11.053-24.818-24.688-24.818
			c-13.635,0-24.685,10.987-24.685,24.621c0,7.412,3.268,14.542,8.437,19.067c-10.484,5.752-17.591,17.11-17.591,30.181h67.681
			C276.768,226.832,269.661,215.439,259.175,209.69z"/>
		<circle fill="#FFFFFF" cx="231.276" cy="186.429" r="2.773"/>
		<circle fill="#FFFFFF" cx="254.578" cy="186.429" r="2.773"/>
		<path fill="#FFFFFF" d="M253.466,196.337c0,6.534-4.53,7.21-10.122,7.21c-5.594,0-10.123-0.676-10.123-7.21H253.466z"/>
	</g>
	<g>
		<path fill="#E8A743" d="M231.457,253.646c5.167-4.525,8.439-11.233,8.439-18.643c0-13.636-11.054-24.721-24.688-24.721
			c-13.634,0-24.688,11.038-24.688,24.669c0,7.412,3.271,14.176,8.438,18.701c-10.483,5.75-17.591,18.92-17.591,29.811h67.681
			C249.048,272.575,241.941,259.396,231.457,253.646z"/>
		<path fill="#FFFFFF" d="M203.56,228.002c1.529,0,2.771,1.244,2.771,2.775c0,1.532-1.242,2.772-2.771,2.772
			c-1.534,0-2.773-1.24-2.773-2.772C200.787,229.247,202.026,228.002,203.56,228.002z"/>
		<circle fill="#FFFFFF" cx="226.858" cy="230.776" r="2.774"/>
		<path fill="#FFFFFF" d="M225.75,242.081c0,4.356-4.532,7.211-10.125,7.211c-5.59,0-10.122-2.856-10.122-7.211H225.75z"/>
	</g>
	<path fill="#DCDDDD" d="M88.066,18.666H34.17c-6.401,0-11.59,5.189-11.59,11.59v49.839c0,26.657,28.396,31.293,28.396,31.293
		c-6.971-2.323-8.764-12.921-9.188-19.703h46.276c6.401,0,11.59-5.189,11.59-11.59V30.256
		C99.656,23.855,94.467,18.666,88.066,18.666"/>
	<path fill="#DCDDDD" d="M180.061,60.156h53.896c6.398,0,11.59,5.189,11.59,11.59v49.838c0,26.658-28.396,31.294-28.396,31.294
		c6.97-2.323,8.763-12.923,9.188-19.704h-46.276c-6.401,0-11.59-5.189-11.59-11.59V71.746
		C168.471,65.345,173.66,60.156,180.061,60.156"/>
	<g>
		<path fill="#E8A743" d="M117.374,155.831c6.576-5.758,10.735-14.396,10.735-23.821c0-17.344-14.061-31.499-31.405-31.499
			c-17.342,0-31.402,14.013-31.402,31.356c0,9.426,4.158,18.23,10.734,23.985c-13.335,7.314-22.378,22.132-22.378,38.121h86.093
			C139.75,177.986,130.709,163.145,117.374,155.831z"/>
		<circle fill="#FFFFFF" cx="81.885" cy="126.528" r="3.529"/>
		<circle fill="#FFFFFF" cx="111.524" cy="126.528" r="3.529"/>
		<path fill="#FFFFFF" d="M110.114,139.857c0,6.151-5.768,9.175-12.878,9.175c-7.113,0-12.879-3.024-12.879-9.175H110.114z"/>
	</g>
</g>
</svg>
