<?xml version="1.0" encoding="utf-8"?>
<!-- Generator: Adobe Illustrator 17.1.0, SVG Export Plug-In . SVG Version: 6.00 Build 0)  -->
<!DOCTYPE svg PUBLIC "-//W3C//DTD SVG 1.1//EN" "http://www.w3.org/Graphics/SVG/1.1/DTD/svg11.dtd">
<svg version="1.1" id="圖層_1" xmlns="http://www.w3.org/2000/svg" xmlns:xlink="http://www.w3.org/1999/xlink" x="0px" y="0px"
	 viewBox="0 0 300 300" enable-background="new 0 0 300 300" xml:space="preserve">
<g display="none">
	<circle display="inline" fill="#FFFFFF" cx="151.5" cy="59.8" r="59"/>
	<g display="inline">
		<path fill="#00AFAD" d="M196.8,43.7h-36c-3.1,0-5.5,2.5-5.5,5.5v5.4h-8.9v-5.4c0-3.1-2.5-5.5-5.5-5.5h-36c-3.1,0-5.5,2.5-5.5,5.5
			v18.5c0,3.1,2.5,5.5,5.5,5.5h36c3.1,0,5.5-2.5,5.5-5.5v-5.4h8.9v5.4c0,3.1,2.5,5.5,5.5,5.5h36c3.1,0,5.5-2.5,5.5-5.5V49.3
			C202.4,46.2,199.9,43.7,196.8,43.7"/>
		<path fill="#FFFFFF" d="M140.9,63.7c0,2.9-2.4,5.3-5.3,5.3h-26.1c-2.9,0-5.3-2.4-5.3-5.3v-10c0-2.9,2.4-5.3,5.3-5.3h26.1
			c2.9,0,5.3,2.4,5.3,5.3V63.7z"/>
		<path fill="#FFFFFF" d="M197.9,63.7c0,2.9-2.4,5.3-5.3,5.3h-26.1c-2.9,0-5.3-2.4-5.3-5.3v-10c0-2.9,2.4-5.3,5.3-5.3h26.1
			c2.9,0,5.3,2.4,5.3,5.3V63.7z"/>
		<g>
			<g>
				<defs>
					<path id="SVGID_1_" d="M196.8,43.7h-36c-3.1,0-5.5,2.5-5.5,5.5v5.4h-8.9v-5.4c0-3.1-2.5-5.5-5.5-5.5h-36
						c-3.1,0-5.5,2.5-5.5,5.5v18.5c0,3.1,2.5,5.5,5.5,5.5h36c3.1,0,5.5-2.5,5.5-5.5v-5.4h8.9v5.4c0,3.1,2.5,5.5,5.5,5.5h36
						c3.1,0,5.5-2.5,5.5-5.5V49.3C202.4,46.2,199.9,43.7,196.8,43.7"/>
				</defs>
				<clipPath id="SVGID_2_">
					<use xlink:href="#SVGID_1_"  overflow="visible"/>
				</clipPath>
				<polygon opacity="0.2" clip-path="url(#SVGID_2_)" fill="#FFFFFF" enable-background="new    " points="197.2,38.5 86.7,77.7 
					92.8,36.7 				"/>
			</g>
		</g>
	</g>
	<g display="inline">
		<circle fill="#FFFFFF" cx="244" cy="245.8" r="55"/>
		<path fill="#F2A665" d="M276.2,228.4H265c-0.6-9.5-8.6-17.1-18.3-17.1s-17.6,7.6-18.3,17.1h-11.5c-2.6,0-4.7,2.1-4.7,4.7v35.8
			c0,2.6,2.1,4.7,4.7,4.7h59.4c2.6,0,4.7-2.1,4.7-4.7v-35.8C280.9,230.5,278.8,228.4,276.2,228.4z M250.4,262.6h-7.8v-24.9h7.8
			V262.6z M234,228.4c0.6-6.5,6.1-11.5,12.7-11.5s12.1,5,12.7,11.5H234z"/>
		<g>
			<g>
				<defs>
					<path id="SVGID_3_" d="M277.2,228.4H266c-0.6-9.5-8.6-17.1-18.3-17.1s-17.6,7.6-18.3,17.1h-11.5c-2.6,0-4.7,2.1-4.7,4.7v35.8
						c0,2.6,2.1,4.7,4.7,4.7h59.4c2.6,0,4.7-2.1,4.7-4.7v-35.8C281.9,230.5,279.8,228.4,277.2,228.4z"/>
				</defs>
				<clipPath id="SVGID_4_">
					<use xlink:href="#SVGID_3_"  overflow="visible"/>
				</clipPath>
				<polygon opacity="0.2" clip-path="url(#SVGID_4_)" fill="#FFFFFF" enable-background="new    " points="273.7,206.7 
					204.1,286.2 203.8,216.9 				"/>
			</g>
		</g>
	</g>
	<g display="inline">
		<circle fill="#FFFFFF" cx="55" cy="238.4" r="55"/>
		<g>
			<path fill="#F7B029" d="M65.4,242.6c-5-2.7-13.4-4.4-22.9-4.4s-17.9,1.8-22.9,4.4h-4.7v5.9h0c0.5,5.4,12.6,9.7,27.6,9.7
				s27.1-4.3,27.6-9.7h0v-5.9H65.4z"/>
			
				<line fill="none" stroke="#FFFFFF" stroke-width="0.812" stroke-linecap="round" stroke-linejoin="round" x1="16.6" y1="244.2" x2="16.6" y2="249.9"/>
			
				<line fill="none" stroke="#FFFFFF" stroke-width="0.812" stroke-linecap="round" stroke-linejoin="round" x1="18.6" y1="245.9" x2="18.6" y2="251.6"/>
			
				<line fill="none" stroke="#FFFFFF" stroke-width="0.812" stroke-linecap="round" stroke-linejoin="round" x1="21" y1="247.3" x2="21" y2="253"/>
			
				<line fill="none" stroke="#FFFFFF" stroke-width="0.812" stroke-linecap="round" stroke-linejoin="round" x1="23.5" y1="248.5" x2="23.5" y2="254.2"/>
			
				<line fill="none" stroke="#FFFFFF" stroke-width="0.812" stroke-linecap="round" stroke-linejoin="round" x1="26.4" y1="249.6" x2="26.4" y2="255.3"/>
			
				<line fill="none" stroke="#FFFFFF" stroke-width="0.812" stroke-linecap="round" stroke-linejoin="round" x1="29.9" y1="250.7" x2="29.9" y2="256.3"/>
			
				<line fill="none" stroke="#FFFFFF" stroke-width="0.812" stroke-linecap="round" stroke-linejoin="round" x1="33.7" y1="251.1" x2="33.7" y2="256.8"/>
			
				<line fill="none" stroke="#FFFFFF" stroke-width="0.812" stroke-linecap="round" stroke-linejoin="round" x1="38.2" y1="251.8" x2="38.2" y2="257.5"/>
			
				<line fill="none" stroke="#FFFFFF" stroke-width="0.812" stroke-linecap="round" stroke-linejoin="round" x1="42" y1="252" x2="42" y2="257.7"/>
			
				<line fill="none" stroke="#FFFFFF" stroke-width="0.812" stroke-linecap="round" stroke-linejoin="round" x1="46.3" y1="251.7" x2="46.3" y2="257.3"/>
			
				<line fill="none" stroke="#FFFFFF" stroke-width="0.812" stroke-linecap="round" stroke-linejoin="round" x1="50.6" y1="251.5" x2="50.6" y2="257.2"/>
			
				<line fill="none" stroke="#FFFFFF" stroke-width="0.812" stroke-linecap="round" stroke-linejoin="round" x1="54.2" y1="250.9" x2="54.2" y2="256.6"/>
			
				<line fill="none" stroke="#FFFFFF" stroke-width="0.812" stroke-linecap="round" stroke-linejoin="round" x1="57.8" y1="250.2" x2="57.8" y2="255.9"/>
			
				<line fill="none" stroke="#FFFFFF" stroke-width="0.812" stroke-linecap="round" stroke-linejoin="round" x1="61.2" y1="249.1" x2="61.2" y2="254.8"/>
			
				<line fill="none" stroke="#FFFFFF" stroke-width="0.812" stroke-linecap="round" stroke-linejoin="round" x1="64.6" y1="247.8" x2="64.6" y2="253.5"/>
			
				<line fill="none" stroke="#FFFFFF" stroke-width="0.812" stroke-linecap="round" stroke-linejoin="round" x1="67.2" y1="246" x2="67.2" y2="251.7"/>
			
				<line fill="none" stroke="#FFFFFF" stroke-width="0.812" stroke-linecap="round" stroke-linejoin="round" x1="69.1" y1="243.9" x2="69.1" y2="249.6"/>
			<ellipse fill="#FEDA4C" cx="42.5" cy="242.8" rx="27.6" ry="10"/>
			<ellipse fill="#FFFFFF" cx="42.5" cy="242.8" rx="21.7" ry="7.9"/>
			<ellipse fill="#FEDA4C" cx="42.5" cy="242.8" rx="20" ry="7.3"/>
		</g>
		<g>
			<path fill="#F7B029" d="M65.4,234.2c-5-2.7-13.4-4.4-22.9-4.4s-17.9,1.8-22.9,4.4h-4.7v5.9h0c0.5,5.4,12.6,9.7,27.6,9.7
				s27.1-4.3,27.6-9.7h0v-5.9H65.4z"/>
			
				<line fill="none" stroke="#FFFFFF" stroke-width="0.812" stroke-linecap="round" stroke-linejoin="round" x1="16.6" y1="235.8" x2="16.6" y2="241.5"/>
			
				<line fill="none" stroke="#FFFFFF" stroke-width="0.812" stroke-linecap="round" stroke-linejoin="round" x1="18.6" y1="237.5" x2="18.6" y2="243.2"/>
			
				<line fill="none" stroke="#FFFFFF" stroke-width="0.812" stroke-linecap="round" stroke-linejoin="round" x1="21" y1="238.9" x2="21" y2="244.6"/>
			
				<line fill="none" stroke="#FFFFFF" stroke-width="0.812" stroke-linecap="round" stroke-linejoin="round" x1="23.5" y1="240.1" x2="23.5" y2="245.8"/>
			
				<line fill="none" stroke="#FFFFFF" stroke-width="0.812" stroke-linecap="round" stroke-linejoin="round" x1="26.4" y1="241.3" x2="26.4" y2="246.9"/>
			
				<line fill="none" stroke="#FFFFFF" stroke-width="0.812" stroke-linecap="round" stroke-linejoin="round" x1="29.9" y1="242.3" x2="29.9" y2="247.9"/>
			
				<line fill="none" stroke="#FFFFFF" stroke-width="0.812" stroke-linecap="round" stroke-linejoin="round" x1="33.7" y1="242.7" x2="33.7" y2="248.4"/>
			
				<line fill="none" stroke="#FFFFFF" stroke-width="0.812" stroke-linecap="round" stroke-linejoin="round" x1="38.2" y1="243.4" x2="38.2" y2="249.1"/>
			
				<line fill="none" stroke="#FFFFFF" stroke-width="0.812" stroke-linecap="round" stroke-linejoin="round" x1="42" y1="243.6" x2="42" y2="249.3"/>
			
				<line fill="none" stroke="#FFFFFF" stroke-width="0.812" stroke-linecap="round" stroke-linejoin="round" x1="46.3" y1="243.3" x2="46.3" y2="248.9"/>
			
				<line fill="none" stroke="#FFFFFF" stroke-width="0.812" stroke-linecap="round" stroke-linejoin="round" x1="50.6" y1="243.1" x2="50.6" y2="248.8"/>
			
				<line fill="none" stroke="#FFFFFF" stroke-width="0.812" stroke-linecap="round" stroke-linejoin="round" x1="54.2" y1="242.5" x2="54.2" y2="248.2"/>
			
				<line fill="none" stroke="#FFFFFF" stroke-width="0.812" stroke-linecap="round" stroke-linejoin="round" x1="57.8" y1="241.8" x2="57.8" y2="247.5"/>
			
				<line fill="none" stroke="#FFFFFF" stroke-width="0.812" stroke-linecap="round" stroke-linejoin="round" x1="61.2" y1="240.7" x2="61.2" y2="246.4"/>
			
				<line fill="none" stroke="#FFFFFF" stroke-width="0.812" stroke-linecap="round" stroke-linejoin="round" x1="64.6" y1="239.4" x2="64.6" y2="245.1"/>
			
				<line fill="none" stroke="#FFFFFF" stroke-width="0.812" stroke-linecap="round" stroke-linejoin="round" x1="67.2" y1="237.6" x2="67.2" y2="243.3"/>
			
				<line fill="none" stroke="#FFFFFF" stroke-width="0.812" stroke-linecap="round" stroke-linejoin="round" x1="69.1" y1="235.5" x2="69.1" y2="241.2"/>
			<ellipse fill="#FEDA4C" cx="42.5" cy="234.4" rx="27.6" ry="10"/>
			<ellipse fill="#FFFFFF" cx="42.5" cy="234.4" rx="21.7" ry="7.9"/>
			<ellipse fill="#FEDA4C" cx="42.5" cy="234.4" rx="20" ry="7.3"/>
		</g>
		<g>
			<path fill="#F7B029" d="M65.4,227.2c-5-2.7-13.4-4.4-22.9-4.4s-17.9,1.8-22.9,4.4h-4.7v5.9h0c0.5,5.4,12.6,9.7,27.6,9.7
				s27.1-4.3,27.6-9.7h0v-5.9H65.4z"/>
			
				<line fill="none" stroke="#FFFFFF" stroke-width="0.812" stroke-linecap="round" stroke-linejoin="round" x1="16.6" y1="228.8" x2="16.6" y2="234.5"/>
			
				<line fill="none" stroke="#FFFFFF" stroke-width="0.812" stroke-linecap="round" stroke-linejoin="round" x1="18.6" y1="230.5" x2="18.6" y2="236.2"/>
			
				<line fill="none" stroke="#FFFFFF" stroke-width="0.812" stroke-linecap="round" stroke-linejoin="round" x1="21" y1="231.9" x2="21" y2="237.6"/>
			
				<line fill="none" stroke="#FFFFFF" stroke-width="0.812" stroke-linecap="round" stroke-linejoin="round" x1="23.5" y1="233.1" x2="23.5" y2="238.8"/>
			
				<line fill="none" stroke="#FFFFFF" stroke-width="0.812" stroke-linecap="round" stroke-linejoin="round" x1="26.4" y1="234.3" x2="26.4" y2="239.9"/>
			
				<line fill="none" stroke="#FFFFFF" stroke-width="0.812" stroke-linecap="round" stroke-linejoin="round" x1="29.9" y1="235.3" x2="29.9" y2="240.9"/>
			
				<line fill="none" stroke="#FFFFFF" stroke-width="0.812" stroke-linecap="round" stroke-linejoin="round" x1="33.7" y1="235.7" x2="33.7" y2="241.4"/>
			
				<line fill="none" stroke="#FFFFFF" stroke-width="0.812" stroke-linecap="round" stroke-linejoin="round" x1="38.2" y1="236.4" x2="38.2" y2="242.1"/>
			
				<line fill="none" stroke="#FFFFFF" stroke-width="0.812" stroke-linecap="round" stroke-linejoin="round" x1="42" y1="236.6" x2="42" y2="242.3"/>
			
				<line fill="none" stroke="#FFFFFF" stroke-width="0.812" stroke-linecap="round" stroke-linejoin="round" x1="46.3" y1="236.3" x2="46.3" y2="242"/>
			
				<line fill="none" stroke="#FFFFFF" stroke-width="0.812" stroke-linecap="round" stroke-linejoin="round" x1="50.6" y1="236.1" x2="50.6" y2="241.8"/>
			
				<line fill="none" stroke="#FFFFFF" stroke-width="0.812" stroke-linecap="round" stroke-linejoin="round" x1="54.2" y1="235.5" x2="54.2" y2="241.2"/>
			
				<line fill="none" stroke="#FFFFFF" stroke-width="0.812" stroke-linecap="round" stroke-linejoin="round" x1="57.8" y1="234.8" x2="57.8" y2="240.5"/>
			
				<line fill="none" stroke="#FFFFFF" stroke-width="0.812" stroke-linecap="round" stroke-linejoin="round" x1="61.2" y1="233.7" x2="61.2" y2="239.4"/>
			
				<line fill="none" stroke="#FFFFFF" stroke-width="0.812" stroke-linecap="round" stroke-linejoin="round" x1="64.6" y1="232.4" x2="64.6" y2="238.1"/>
			
				<line fill="none" stroke="#FFFFFF" stroke-width="0.812" stroke-linecap="round" stroke-linejoin="round" x1="67.2" y1="230.6" x2="67.2" y2="236.3"/>
			
				<line fill="none" stroke="#FFFFFF" stroke-width="0.812" stroke-linecap="round" stroke-linejoin="round" x1="69.1" y1="228.5" x2="69.1" y2="234.2"/>
			<ellipse fill="#FEDA4C" cx="42.5" cy="227.4" rx="27.6" ry="10"/>
			<ellipse fill="#FFFFFF" cx="42.5" cy="227.4" rx="21.7" ry="7.9"/>
			<ellipse fill="#FEDA4C" cx="42.5" cy="227.4" rx="20" ry="7.3"/>
		</g>
		<g>
			<path fill="#F7B029" d="M65.4,220.7c-5-2.7-13.4-4.4-22.9-4.4s-17.9,1.8-22.9,4.4h-4.7v5.9h0c0.5,5.4,12.6,9.7,27.6,9.7
				s27.1-4.3,27.6-9.7h0v-5.9H65.4z"/>
			
				<line fill="none" stroke="#FFFFFF" stroke-width="0.812" stroke-linecap="round" stroke-linejoin="round" x1="16.6" y1="222.3" x2="16.6" y2="228"/>
			
				<line fill="none" stroke="#FFFFFF" stroke-width="0.812" stroke-linecap="round" stroke-linejoin="round" x1="18.6" y1="224" x2="18.6" y2="229.7"/>
			
				<line fill="none" stroke="#FFFFFF" stroke-width="0.812" stroke-linecap="round" stroke-linejoin="round" x1="21" y1="225.4" x2="21" y2="231.1"/>
			
				<line fill="none" stroke="#FFFFFF" stroke-width="0.812" stroke-linecap="round" stroke-linejoin="round" x1="23.5" y1="226.6" x2="23.5" y2="232.2"/>
			
				<line fill="none" stroke="#FFFFFF" stroke-width="0.812" stroke-linecap="round" stroke-linejoin="round" x1="26.4" y1="227.7" x2="26.4" y2="233.4"/>
			
				<line fill="none" stroke="#FFFFFF" stroke-width="0.812" stroke-linecap="round" stroke-linejoin="round" x1="29.9" y1="228.7" x2="29.9" y2="234.4"/>
			
				<line fill="none" stroke="#FFFFFF" stroke-width="0.812" stroke-linecap="round" stroke-linejoin="round" x1="33.7" y1="229.2" x2="33.7" y2="234.9"/>
			
				<line fill="none" stroke="#FFFFFF" stroke-width="0.812" stroke-linecap="round" stroke-linejoin="round" x1="38.2" y1="229.9" x2="38.2" y2="235.6"/>
			
				<line fill="none" stroke="#FFFFFF" stroke-width="0.812" stroke-linecap="round" stroke-linejoin="round" x1="42" y1="230.1" x2="42" y2="235.7"/>
			
				<line fill="none" stroke="#FFFFFF" stroke-width="0.812" stroke-linecap="round" stroke-linejoin="round" x1="46.3" y1="229.8" x2="46.3" y2="235.4"/>
			
				<line fill="none" stroke="#FFFFFF" stroke-width="0.812" stroke-linecap="round" stroke-linejoin="round" x1="50.6" y1="229.6" x2="50.6" y2="235.3"/>
			
				<line fill="none" stroke="#FFFFFF" stroke-width="0.812" stroke-linecap="round" stroke-linejoin="round" x1="54.2" y1="229" x2="54.2" y2="234.6"/>
			
				<line fill="none" stroke="#FFFFFF" stroke-width="0.812" stroke-linecap="round" stroke-linejoin="round" x1="57.8" y1="228.3" x2="57.8" y2="234"/>
			
				<line fill="none" stroke="#FFFFFF" stroke-width="0.812" stroke-linecap="round" stroke-linejoin="round" x1="61.2" y1="227.2" x2="61.2" y2="232.9"/>
			
				<line fill="none" stroke="#FFFFFF" stroke-width="0.812" stroke-linecap="round" stroke-linejoin="round" x1="64.6" y1="225.9" x2="64.6" y2="231.5"/>
			
				<line fill="none" stroke="#FFFFFF" stroke-width="0.812" stroke-linecap="round" stroke-linejoin="round" x1="67.2" y1="224.1" x2="67.2" y2="229.8"/>
			
				<line fill="none" stroke="#FFFFFF" stroke-width="0.812" stroke-linecap="round" stroke-linejoin="round" x1="69.1" y1="222" x2="69.1" y2="227.7"/>
			<ellipse fill="#FEDA4C" cx="42.5" cy="220.9" rx="27.6" ry="10"/>
			<ellipse fill="#FFFFFF" cx="42.5" cy="220.9" rx="21.7" ry="7.9"/>
			<ellipse fill="#FEDA4C" cx="42.5" cy="220.9" rx="20" ry="7.3"/>
		</g>
		<g>
			<path fill="#F7B029" d="M96.8,244c-3.6-5.3-10.5-11.7-19.1-17.2c-8.6-5.5-16.7-8.8-22-9.3l-4.2-2.7l-2,5.3l0,0
				c-1.4,5.1,8.1,16,21.5,24.7c13.4,8.6,25.8,11.8,28,7.2l0,0l2-5.3L96.8,244z"/>
			
				<line fill="none" stroke="#FFFFFF" stroke-width="0.812" stroke-linecap="round" stroke-linejoin="round" x1="52.4" y1="217.2" x2="50.5" y2="222.3"/>
			
				<line fill="none" stroke="#FFFFFF" stroke-width="0.812" stroke-linecap="round" stroke-linejoin="round" x1="53.6" y1="219.9" x2="51.7" y2="225"/>
			
				<line fill="none" stroke="#FFFFFF" stroke-width="0.812" stroke-linecap="round" stroke-linejoin="round" x1="55.4" y1="222.6" x2="53.5" y2="227.7"/>
			
				<line fill="none" stroke="#FFFFFF" stroke-width="0.812" stroke-linecap="round" stroke-linejoin="round" x1="57.2" y1="225.1" x2="55.3" y2="230.2"/>
			
				<line fill="none" stroke="#FFFFFF" stroke-width="0.812" stroke-linecap="round" stroke-linejoin="round" x1="59.4" y1="227.8" x2="57.5" y2="232.9"/>
			
				<line fill="none" stroke="#FFFFFF" stroke-width="0.812" stroke-linecap="round" stroke-linejoin="round" x1="62.3" y1="230.8" x2="60.4" y2="235.9"/>
			
				<line fill="none" stroke="#FFFFFF" stroke-width="0.812" stroke-linecap="round" stroke-linejoin="round" x1="65.4" y1="233.3" x2="63.6" y2="238.4"/>
			
				<line fill="none" stroke="#FFFFFF" stroke-width="0.812" stroke-linecap="round" stroke-linejoin="round" x1="69.3" y1="236.6" x2="67.4" y2="241.7"/>
			
				<line fill="none" stroke="#FFFFFF" stroke-width="0.812" stroke-linecap="round" stroke-linejoin="round" x1="72.7" y1="238.9" x2="70.8" y2="244"/>
			
				<line fill="none" stroke="#FFFFFF" stroke-width="0.812" stroke-linecap="round" stroke-linejoin="round" x1="76.6" y1="241.1" x2="74.7" y2="246.2"/>
			
				<line fill="none" stroke="#FFFFFF" stroke-width="0.812" stroke-linecap="round" stroke-linejoin="round" x1="80.5" y1="243.4" x2="78.6" y2="248.5"/>
			
				<line fill="none" stroke="#FFFFFF" stroke-width="0.812" stroke-linecap="round" stroke-linejoin="round" x1="84" y1="245" x2="82.1" y2="250.1"/>
			
				<line fill="none" stroke="#FFFFFF" stroke-width="0.812" stroke-linecap="round" stroke-linejoin="round" x1="87.4" y1="246.4" x2="85.5" y2="251.5"/>
			
				<line fill="none" stroke="#FFFFFF" stroke-width="0.812" stroke-linecap="round" stroke-linejoin="round" x1="90.8" y1="247.4" x2="89" y2="252.5"/>
			
				<line fill="none" stroke="#FFFFFF" stroke-width="0.812" stroke-linecap="round" stroke-linejoin="round" x1="94.4" y1="248.2" x2="92.5" y2="253.3"/>
			
				<line fill="none" stroke="#FFFFFF" stroke-width="0.812" stroke-linecap="round" stroke-linejoin="round" x1="97.3" y1="248.1" x2="95.4" y2="253.2"/>
			
				<line fill="none" stroke="#FFFFFF" stroke-width="0.812" stroke-linecap="round" stroke-linejoin="round" x1="99.7" y1="247.3" x2="97.8" y2="252.4"/>
			<path fill="#FEDA4C" d="M100.9,246.9c-1.8,5-14.4,1.9-28.1-6.9c-13.7-8.8-23.3-20-21.4-25c1.8-5,14.4-1.9,28.1,6.9
				C93.2,230.8,102.8,241.9,100.9,246.9z"/>
			<path fill="#FFFFFF" d="M95.7,243.5c-1.5,3.9-11.4,1.5-22.2-5.5c-10.8-6.9-18.4-15.8-16.9-19.7c1.5-3.9,11.4-1.5,22.2,5.5
				C89.6,230.8,97.1,239.6,95.7,243.5z"/>
			<path fill="#FEDA4C" d="M94.2,242.5c-1.3,3.6-10.5,1.4-20.4-5c-9.9-6.4-16.9-14.5-15.6-18.1c1.3-3.6,10.5-1.4,20.4,5
				S95.5,238.9,94.2,242.5z"/>
		</g>
	</g>
	<g display="inline">
		<g>
			<polygon fill="#FAE2CD" points="147.4,211.5 122.9,179.8 147,131.3 171.5,179.5 			"/>
			<polygon fill="#595758" points="147.1,153.6 136,153.7 147,131.5 158.2,153.5 			"/>
		</g>
		<g>
			<polygon fill="#C06367" points="172,280.3 122.9,280.5 122.4,179.8 133.3,190.5 147.6,179.6 161.3,190.3 171.5,179.5 			"/>
			<g>
				<g>
					<g>
						<defs>
							<polygon id="SVGID_5_" points="172,280.3 122.9,280.5 122.4,179.8 133.3,190.5 147.6,179.6 161.3,190.3 171.5,179.5 							
								"/>
						</defs>
						<clipPath id="SVGID_6_">
							<use xlink:href="#SVGID_5_"  overflow="visible"/>
						</clipPath>
						
							<line clip-path="url(#SVGID_6_)" fill="none" stroke="#954A50" stroke-width="1.5042" stroke-linecap="round" stroke-linejoin="round" stroke-miterlimit="10" x1="133" y1="183.5" x2="133.4" y2="280.4"/>
					</g>
				</g>
				<g>
					<g>
						<defs>
							<polygon id="SVGID_7_" points="172,280.3 122.9,280.5 122.4,179.8 133.3,190.5 147.6,179.6 161.3,190.3 171.5,179.5 							
								"/>
						</defs>
						<clipPath id="SVGID_8_">
							<use xlink:href="#SVGID_7_"  overflow="visible"/>
						</clipPath>
						
							<line clip-path="url(#SVGID_8_)" fill="none" stroke="#954A50" stroke-width="1.5042" stroke-linecap="round" stroke-linejoin="round" stroke-miterlimit="10" x1="161.5" y1="183.4" x2="161.9" y2="280.3"/>
					</g>
				</g>
				<g>
					<g>
						<defs>
							<polygon id="SVGID_9_" points="172,280.3 122.9,280.5 122.4,179.8 133.3,190.5 147.6,179.6 161.3,190.3 171.5,179.5 							
								"/>
						</defs>
						<clipPath id="SVGID_10_">
							<use xlink:href="#SVGID_9_"  overflow="visible"/>
						</clipPath>
						
							<line clip-path="url(#SVGID_10_)" fill="none" stroke="#954A50" stroke-width="1.5042" stroke-linecap="round" stroke-linejoin="round" stroke-miterlimit="10" x1="147.3" y1="171.3" x2="147.8" y2="280.4"/>
					</g>
				</g>
			</g>
		</g>
		<polygon opacity="0.48" fill="#B5B5B6" enable-background="new    " points="147,131.5 133.3,190.5 133.6,273.3 122.9,273.3 
			122.4,179.8 		"/>
		<polygon opacity="0.48" fill="#B5B5B6" enable-background="new    " points="147.1,132.3 147.6,179.6 148,272.5 122.9,272.6 
			122.4,179.8 		"/>
		<g>
			<path fill="#FAE2CD" d="M170.3,284.6c0,4-3.2,7.2-7.1,7.2l-30.9,0.1c-4,0-7.2-3.2-7.2-7.1l0,0c0-4,3.2-7.2,7.1-7.2l30.9-0.1
				C167.1,277.4,170.3,280.6,170.3,284.6L170.3,284.6z"/>
			
				<rect x="121.2" y="272.5" transform="matrix(1 -4.599951e-03 4.599951e-03 1 -1.2776 0.6806)" fill="#B5B5B6" width="52.2" height="11.2"/>
			<polyline fill="#9FA0A0" points="173.4,283.6 121.2,283.9 121.2,272.6 			"/>
			<path opacity="0.4" fill="#FAE2CD" enable-background="new    " d="M131.4,291.9c0,0-6.2-0.5-6.3-8.2l45.1-0.2
				C170.2,283.5,131.4,284.1,131.4,291.9z"/>
		</g>
	</g>
</g>
<g display="none">
	<g display="inline">
		<path fill="#E8A743" d="M201.9,209.7c5.2-4.5,8.4-11.4,8.4-18.8c0-13.6-11.1-24.8-24.7-24.8c-13.6,0-24.7,11-24.7,24.6
			c0,7.4,3.3,14.5,8.4,19.1c-10.5,5.8-17.6,17.1-17.6,30.2h67.7C219.5,226.8,212.4,215.4,201.9,209.7z"/>
		<circle fill="#FFFFFF" cx="174" cy="186.4" r="2.8"/>
		<circle fill="#FFFFFF" cx="197.3" cy="186.4" r="2.8"/>
		<path fill="#FFFFFF" d="M196.2,196.3c0,6.5-4.5,7.2-10.1,7.2c-5.6,0-10.1-0.7-10.1-7.2H196.2z"/>
	</g>
	<g display="inline">
		<path fill="#E8A743" d="M259.2,209.7c5.2-4.5,8.4-11.4,8.4-18.8c0-13.6-11.1-24.8-24.7-24.8s-24.7,11-24.7,24.6
			c0,7.4,3.3,14.5,8.4,19.1c-10.5,5.8-17.6,17.1-17.6,30.2h67.7C276.8,226.8,269.7,215.4,259.2,209.7z"/>
		<circle fill="#FFFFFF" cx="231.3" cy="186.4" r="2.8"/>
		<circle fill="#FFFFFF" cx="254.6" cy="186.4" r="2.8"/>
		<path fill="#FFFFFF" d="M253.5,196.3c0,6.5-4.5,7.2-10.1,7.2c-5.6,0-10.1-0.7-10.1-7.2H253.5z"/>
	</g>
	<g display="inline">
		<path fill="#E8A743" d="M231.5,253.6c5.2-4.5,8.4-11.2,8.4-18.6c0-13.6-11.1-24.7-24.7-24.7s-24.7,11-24.7,24.7
			c0,7.4,3.3,14.2,8.4,18.7c-10.5,5.7-17.6,18.9-17.6,29.8H249C249,272.6,241.9,259.4,231.5,253.6z"/>
		<path fill="#FFFFFF" d="M203.6,228c1.5,0,2.8,1.2,2.8,2.8c0,1.5-1.2,2.8-2.8,2.8c-1.5,0-2.8-1.2-2.8-2.8
			C200.8,229.2,202,228,203.6,228z"/>
		<circle fill="#FFFFFF" cx="226.9" cy="230.8" r="2.8"/>
		<path fill="#FFFFFF" d="M225.8,242.1c0,4.4-4.5,7.2-10.1,7.2c-5.6,0-10.1-2.9-10.1-7.2H225.8z"/>
	</g>
	<path display="inline" fill="#DCDDDD" d="M88.1,18.7H34.2c-6.4,0-11.6,5.2-11.6,11.6v49.8c0,26.7,28.4,31.3,28.4,31.3
		c-7-2.3-8.8-12.9-9.2-19.7h46.3c6.4,0,11.6-5.2,11.6-11.6V30.3C99.7,23.9,94.5,18.7,88.1,18.7"/>
	<path display="inline" fill="#DCDDDD" d="M180.1,60.2H234c6.4,0,11.6,5.2,11.6,11.6v49.8c0,26.7-28.4,31.3-28.4,31.3
		c7-2.3,8.8-12.9,9.2-19.7h-46.3c-6.4,0-11.6-5.2-11.6-11.6V71.7C168.5,65.3,173.7,60.2,180.1,60.2"/>
	<g display="inline">
		<path fill="#E8A743" d="M117.4,155.8c6.6-5.8,10.7-14.4,10.7-23.8c0-17.3-14.1-31.5-31.4-31.5c-17.3,0-31.4,14-31.4,31.4
			c0,9.4,4.2,18.2,10.7,24C62.7,163.2,53.7,178,53.7,194h86.1C139.8,178,130.7,163.1,117.4,155.8z"/>
		<circle fill="#FFFFFF" cx="81.9" cy="126.5" r="3.5"/>
		<circle fill="#FFFFFF" cx="111.5" cy="126.5" r="3.5"/>
		<path fill="#FFFFFF" d="M110.1,139.9c0,6.2-5.8,9.2-12.9,9.2c-7.1,0-12.9-3-12.9-9.2H110.1z"/>
	</g>
</g>
<g display="none">
	<g display="inline">
		<rect x="25.8" y="13.3" fill="#DDDDDD" width="191.9" height="265"/>
		<rect x="30.1" y="23.4" fill="#F0EFEF" width="191.9" height="265"/>
		<rect x="37.6" y="16.5" fill="#F7F9F9" width="191.9" height="265"/>
		<rect x="93.8" y="28.2" opacity="0.54" fill="#C9CACA" enable-background="new    " width="79.4" height="19.7"/>
		<g opacity="0.54">
			<rect x="82.6" y="68.7" fill="#9FA0A0" width="118.4" height="4.3"/>
			<rect x="66.1" y="79.9" fill="#9FA0A0" width="134.9" height="4.3"/>
			<rect x="66.1" y="91.1" fill="#9FA0A0" width="134.9" height="4.3"/>
			<rect x="66.1" y="102.3" fill="#9FA0A0" width="134.9" height="4.3"/>
		</g>
		<g opacity="0.54">
			<rect x="82.6" y="134.3" fill="#9FA0A0" width="118.4" height="4.3"/>
			<rect x="66.1" y="145.5" fill="#9FA0A0" width="134.9" height="4.3"/>
			<rect x="66.1" y="156.7" fill="#9FA0A0" width="134.9" height="4.3"/>
			<rect x="66.1" y="167.9" fill="#9FA0A0" width="134.9" height="4.3"/>
		</g>
		<g opacity="0.54">
			<rect x="82.6" y="202.5" fill="#9FA0A0" width="118.4" height="4.3"/>
			<rect x="66.1" y="213.7" fill="#9FA0A0" width="134.9" height="4.3"/>
			<rect x="66.1" y="224.9" fill="#9FA0A0" width="134.9" height="4.3"/>
			<rect x="66.1" y="236.1" fill="#9FA0A0" width="134.9" height="4.3"/>
		</g>
	</g>
	<g display="inline">
		<path fill="#F7B029" d="M278.4,232.6c-8.5-4.6-22.8-7.6-39.1-7.6s-30.6,3-39.1,7.6h-8v10.1h0c0.8,9.2,21.5,16.6,47,16.6
			c25.5,0,46.3-7.4,47-16.6h0v-10.1L278.4,232.6L278.4,232.6z"/>
		
			<line fill="none" stroke="#FFFFFF" stroke-width="1.3864" stroke-linecap="round" stroke-linejoin="round" x1="195.1" y1="235.4" x2="195.1" y2="245.1"/>
		
			<line fill="none" stroke="#FFFFFF" stroke-width="1.3864" stroke-linecap="round" stroke-linejoin="round" x1="198.5" y1="238.3" x2="198.5" y2="248"/>
		
			<line fill="none" stroke="#FFFFFF" stroke-width="1.3864" stroke-linecap="round" stroke-linejoin="round" x1="202.7" y1="240.7" x2="202.7" y2="250.4"/>
		
			<line fill="none" stroke="#FFFFFF" stroke-width="1.3864" stroke-linecap="round" stroke-linejoin="round" x1="206.9" y1="242.7" x2="206.9" y2="252.4"/>
		
			<line fill="none" stroke="#FFFFFF" stroke-width="1.3864" stroke-linecap="round" stroke-linejoin="round" x1="211.9" y1="244.7" x2="211.9" y2="254.4"/>
		
			<line fill="none" stroke="#FFFFFF" stroke-width="1.3864" stroke-linecap="round" stroke-linejoin="round" x1="217.9" y1="246.4" x2="217.9" y2="256.1"/>
		
			<line fill="none" stroke="#FFFFFF" stroke-width="1.3864" stroke-linecap="round" stroke-linejoin="round" x1="224.3" y1="247.2" x2="224.3" y2="256.9"/>
		
			<line fill="none" stroke="#FFFFFF" stroke-width="1.3864" stroke-linecap="round" stroke-linejoin="round" x1="232" y1="248.4" x2="232" y2="258.1"/>
		
			<line fill="none" stroke="#FFFFFF" stroke-width="1.3864" stroke-linecap="round" stroke-linejoin="round" x1="238.5" y1="248.6" x2="238.5" y2="258.3"/>
		
			<line fill="none" stroke="#FFFFFF" stroke-width="1.3864" stroke-linecap="round" stroke-linejoin="round" x1="245.8" y1="248.1" x2="245.8" y2="257.8"/>
		
			<line fill="none" stroke="#FFFFFF" stroke-width="1.3864" stroke-linecap="round" stroke-linejoin="round" x1="253.1" y1="247.8" x2="253.1" y2="257.5"/>
		
			<line fill="none" stroke="#FFFFFF" stroke-width="1.3864" stroke-linecap="round" stroke-linejoin="round" x1="259.4" y1="246.8" x2="259.4" y2="256.5"/>
		
			<line fill="none" stroke="#FFFFFF" stroke-width="1.3864" stroke-linecap="round" stroke-linejoin="round" x1="265.4" y1="245.6" x2="265.4" y2="255.3"/>
		
			<line fill="none" stroke="#FFFFFF" stroke-width="1.3864" stroke-linecap="round" stroke-linejoin="round" x1="271.2" y1="243.7" x2="271.2" y2="253.4"/>
		
			<line fill="none" stroke="#FFFFFF" stroke-width="1.3864" stroke-linecap="round" stroke-linejoin="round" x1="277.1" y1="241.5" x2="277.1" y2="251.2"/>
		
			<line fill="none" stroke="#FFFFFF" stroke-width="1.3864" stroke-linecap="round" stroke-linejoin="round" x1="281.6" y1="238.4" x2="281.6" y2="248.1"/>
		
			<line fill="none" stroke="#FFFFFF" stroke-width="1.3864" stroke-linecap="round" stroke-linejoin="round" x1="284.7" y1="234.8" x2="284.7" y2="244.5"/>
		<ellipse fill="#FEDA4C" cx="239.3" cy="233" rx="47.1" ry="17.1"/>
		<ellipse fill="#FFFFFF" cx="239.3" cy="233" rx="37.1" ry="13.5"/>
		<ellipse fill="#FEDA4C" cx="239.3" cy="233" rx="34.2" ry="12.4"/>
	</g>
	<g display="inline">
		<path fill="#F7B029" d="M278.4,218.3c-8.5-4.6-22.8-7.6-39.1-7.6s-30.6,3-39.1,7.6h-8v10.1h0c0.8,9.2,21.5,16.6,47,16.6
			c25.5,0,46.3-7.4,47-16.6h0v-10.1H278.4z"/>
		
			<line fill="none" stroke="#FFFFFF" stroke-width="1.3864" stroke-linecap="round" stroke-linejoin="round" x1="195.1" y1="221" x2="195.1" y2="230.7"/>
		
			<line fill="none" stroke="#FFFFFF" stroke-width="1.3864" stroke-linecap="round" stroke-linejoin="round" x1="198.5" y1="224" x2="198.5" y2="233.7"/>
		
			<line fill="none" stroke="#FFFFFF" stroke-width="1.3864" stroke-linecap="round" stroke-linejoin="round" x1="202.7" y1="226.4" x2="202.7" y2="236"/>
		
			<line fill="none" stroke="#FFFFFF" stroke-width="1.3864" stroke-linecap="round" stroke-linejoin="round" x1="206.9" y1="228.3" x2="206.9" y2="238"/>
		
			<line fill="none" stroke="#FFFFFF" stroke-width="1.3864" stroke-linecap="round" stroke-linejoin="round" x1="211.9" y1="230.3" x2="211.9" y2="240"/>
		
			<line fill="none" stroke="#FFFFFF" stroke-width="1.3864" stroke-linecap="round" stroke-linejoin="round" x1="217.9" y1="232.1" x2="217.9" y2="241.7"/>
		
			<line fill="none" stroke="#FFFFFF" stroke-width="1.3864" stroke-linecap="round" stroke-linejoin="round" x1="224.3" y1="232.9" x2="224.3" y2="242.5"/>
		
			<line fill="none" stroke="#FFFFFF" stroke-width="1.3864" stroke-linecap="round" stroke-linejoin="round" x1="232" y1="234" x2="232" y2="243.7"/>
		
			<line fill="none" stroke="#FFFFFF" stroke-width="1.3864" stroke-linecap="round" stroke-linejoin="round" x1="238.5" y1="234.3" x2="238.5" y2="244"/>
		
			<line fill="none" stroke="#FFFFFF" stroke-width="1.3864" stroke-linecap="round" stroke-linejoin="round" x1="245.8" y1="233.8" x2="245.8" y2="243.5"/>
		
			<line fill="none" stroke="#FFFFFF" stroke-width="1.3864" stroke-linecap="round" stroke-linejoin="round" x1="253.1" y1="233.5" x2="253.1" y2="243.2"/>
		
			<line fill="none" stroke="#FFFFFF" stroke-width="1.3864" stroke-linecap="round" stroke-linejoin="round" x1="259.4" y1="232.5" x2="259.4" y2="242.1"/>
		
			<line fill="none" stroke="#FFFFFF" stroke-width="1.3864" stroke-linecap="round" stroke-linejoin="round" x1="265.4" y1="231.3" x2="265.4" y2="240.9"/>
		
			<line fill="none" stroke="#FFFFFF" stroke-width="1.3864" stroke-linecap="round" stroke-linejoin="round" x1="271.2" y1="229.4" x2="271.2" y2="239.1"/>
		
			<line fill="none" stroke="#FFFFFF" stroke-width="1.3864" stroke-linecap="round" stroke-linejoin="round" x1="277.1" y1="227.1" x2="277.1" y2="236.8"/>
		
			<line fill="none" stroke="#FFFFFF" stroke-width="1.3864" stroke-linecap="round" stroke-linejoin="round" x1="281.6" y1="224.1" x2="281.6" y2="233.8"/>
		
			<line fill="none" stroke="#FFFFFF" stroke-width="1.3864" stroke-linecap="round" stroke-linejoin="round" x1="284.7" y1="220.5" x2="284.7" y2="230.2"/>
		<ellipse fill="#FEDA4C" cx="239.3" cy="218.7" rx="47.1" ry="17.1"/>
		<ellipse fill="#FFFFFF" cx="239.3" cy="218.7" rx="37.1" ry="13.5"/>
		<ellipse fill="#FEDA4C" cx="239.3" cy="218.7" rx="34.2" ry="12.4"/>
	</g>
	<g display="inline">
		<path fill="#F7B029" d="M278.4,206.3c-8.5-4.6-22.8-7.6-39.1-7.6s-30.6,3-39.1,7.6h-8v10.1h0c0.8,9.2,21.5,16.6,47,16.6
			c25.5,0,46.3-7.4,47-16.6h0v-10.1H278.4z"/>
		
			<line fill="none" stroke="#FFFFFF" stroke-width="1.3864" stroke-linecap="round" stroke-linejoin="round" x1="195.1" y1="209.1" x2="195.1" y2="218.8"/>
		
			<line fill="none" stroke="#FFFFFF" stroke-width="1.3864" stroke-linecap="round" stroke-linejoin="round" x1="198.5" y1="212" x2="198.5" y2="221.7"/>
		
			<line fill="none" stroke="#FFFFFF" stroke-width="1.3864" stroke-linecap="round" stroke-linejoin="round" x1="202.7" y1="214.4" x2="202.7" y2="224.1"/>
		
			<line fill="none" stroke="#FFFFFF" stroke-width="1.3864" stroke-linecap="round" stroke-linejoin="round" x1="206.9" y1="216.4" x2="206.9" y2="226.1"/>
		
			<line fill="none" stroke="#FFFFFF" stroke-width="1.3864" stroke-linecap="round" stroke-linejoin="round" x1="211.9" y1="218.4" x2="211.9" y2="228.1"/>
		
			<line fill="none" stroke="#FFFFFF" stroke-width="1.3864" stroke-linecap="round" stroke-linejoin="round" x1="217.9" y1="220.1" x2="217.9" y2="229.8"/>
		
			<line fill="none" stroke="#FFFFFF" stroke-width="1.3864" stroke-linecap="round" stroke-linejoin="round" x1="224.3" y1="220.9" x2="224.3" y2="230.6"/>
		
			<line fill="none" stroke="#FFFFFF" stroke-width="1.3864" stroke-linecap="round" stroke-linejoin="round" x1="232" y1="222.1" x2="232" y2="231.8"/>
		
			<line fill="none" stroke="#FFFFFF" stroke-width="1.3864" stroke-linecap="round" stroke-linejoin="round" x1="238.5" y1="222.4" x2="238.5" y2="232.1"/>
		
			<line fill="none" stroke="#FFFFFF" stroke-width="1.3864" stroke-linecap="round" stroke-linejoin="round" x1="245.8" y1="221.8" x2="245.8" y2="231.5"/>
		
			<line fill="none" stroke="#FFFFFF" stroke-width="1.3864" stroke-linecap="round" stroke-linejoin="round" x1="253.1" y1="221.6" x2="253.1" y2="231.3"/>
		
			<line fill="none" stroke="#FFFFFF" stroke-width="1.3864" stroke-linecap="round" stroke-linejoin="round" x1="259.4" y1="220.5" x2="259.4" y2="230.2"/>
		
			<line fill="none" stroke="#FFFFFF" stroke-width="1.3864" stroke-linecap="round" stroke-linejoin="round" x1="265.4" y1="219.3" x2="265.4" y2="229"/>
		
			<line fill="none" stroke="#FFFFFF" stroke-width="1.3864" stroke-linecap="round" stroke-linejoin="round" x1="271.2" y1="217.5" x2="271.2" y2="227.1"/>
		
			<line fill="none" stroke="#FFFFFF" stroke-width="1.3864" stroke-linecap="round" stroke-linejoin="round" x1="277.1" y1="215.2" x2="277.1" y2="224.9"/>
		
			<line fill="none" stroke="#FFFFFF" stroke-width="1.3864" stroke-linecap="round" stroke-linejoin="round" x1="281.6" y1="212.2" x2="281.6" y2="221.8"/>
		
			<line fill="none" stroke="#FFFFFF" stroke-width="1.3864" stroke-linecap="round" stroke-linejoin="round" x1="284.7" y1="208.6" x2="284.7" y2="218.3"/>
		<ellipse fill="#FEDA4C" cx="239.3" cy="206.7" rx="47.1" ry="17.1"/>
		<ellipse fill="#FFFFFF" cx="239.3" cy="206.7" rx="37.1" ry="13.5"/>
		<ellipse fill="#FEDA4C" cx="239.3" cy="206.7" rx="34.2" ry="12.4"/>
	</g>
	<g display="inline">
		<path fill="#F7B029" d="M278.4,195.2c-8.5-4.6-22.8-7.6-39.1-7.6s-30.6,3-39.1,7.6h-8v10.1h0c0.8,9.2,21.5,16.6,47,16.6
			c25.5,0,46.3-7.4,47-16.6h0v-10.1H278.4z"/>
		
			<line fill="none" stroke="#FFFFFF" stroke-width="1.3864" stroke-linecap="round" stroke-linejoin="round" x1="195.1" y1="198" x2="195.1" y2="207.6"/>
		
			<line fill="none" stroke="#FFFFFF" stroke-width="1.3864" stroke-linecap="round" stroke-linejoin="round" x1="198.5" y1="200.9" x2="198.5" y2="210.6"/>
		
			<line fill="none" stroke="#FFFFFF" stroke-width="1.3864" stroke-linecap="round" stroke-linejoin="round" x1="202.7" y1="203.3" x2="202.7" y2="213"/>
		
			<line fill="none" stroke="#FFFFFF" stroke-width="1.3864" stroke-linecap="round" stroke-linejoin="round" x1="206.9" y1="205.3" x2="206.9" y2="214.9"/>
		
			<line fill="none" stroke="#FFFFFF" stroke-width="1.3864" stroke-linecap="round" stroke-linejoin="round" x1="211.9" y1="207.2" x2="211.9" y2="216.9"/>
		
			<line fill="none" stroke="#FFFFFF" stroke-width="1.3864" stroke-linecap="round" stroke-linejoin="round" x1="217.9" y1="209" x2="217.9" y2="218.7"/>
		
			<line fill="none" stroke="#FFFFFF" stroke-width="1.3864" stroke-linecap="round" stroke-linejoin="round" x1="224.3" y1="209.8" x2="224.3" y2="219.5"/>
		
			<line fill="none" stroke="#FFFFFF" stroke-width="1.3864" stroke-linecap="round" stroke-linejoin="round" x1="232" y1="211" x2="232" y2="220.6"/>
		
			<line fill="none" stroke="#FFFFFF" stroke-width="1.3864" stroke-linecap="round" stroke-linejoin="round" x1="238.5" y1="211.2" x2="238.5" y2="220.9"/>
		
			<line fill="none" stroke="#FFFFFF" stroke-width="1.3864" stroke-linecap="round" stroke-linejoin="round" x1="245.8" y1="210.7" x2="245.8" y2="220.4"/>
		
			<line fill="none" stroke="#FFFFFF" stroke-width="1.3864" stroke-linecap="round" stroke-linejoin="round" x1="253.1" y1="210.4" x2="253.1" y2="220.1"/>
		
			<line fill="none" stroke="#FFFFFF" stroke-width="1.3864" stroke-linecap="round" stroke-linejoin="round" x1="259.4" y1="209.4" x2="259.4" y2="219.1"/>
		
			<line fill="none" stroke="#FFFFFF" stroke-width="1.3864" stroke-linecap="round" stroke-linejoin="round" x1="265.4" y1="208.2" x2="265.4" y2="217.9"/>
		
			<line fill="none" stroke="#FFFFFF" stroke-width="1.3864" stroke-linecap="round" stroke-linejoin="round" x1="271.2" y1="206.3" x2="271.2" y2="216"/>
		
			<line fill="none" stroke="#FFFFFF" stroke-width="1.3864" stroke-linecap="round" stroke-linejoin="round" x1="277.1" y1="204.1" x2="277.1" y2="213.7"/>
		
			<line fill="none" stroke="#FFFFFF" stroke-width="1.3864" stroke-linecap="round" stroke-linejoin="round" x1="281.6" y1="201" x2="281.6" y2="210.7"/>
		
			<line fill="none" stroke="#FFFFFF" stroke-width="1.3864" stroke-linecap="round" stroke-linejoin="round" x1="284.7" y1="197.4" x2="284.7" y2="207.1"/>
		<ellipse fill="#FEDA4C" cx="239.3" cy="195.6" rx="47.1" ry="17.1"/>
		<ellipse fill="#FFFFFF" cx="239.3" cy="195.6" rx="37.1" ry="13.5"/>
		<ellipse fill="#FEDA4C" cx="239.3" cy="195.6" rx="34.2" ry="12.4"/>
	</g>
	<g display="inline">
		<path fill="#F7B029" d="M210.7,184.3c-10.5,2.7-24.9,10.2-38.6,20.9c-13.8,10.6-23.7,21.8-27.5,30.2l-6.8,5.2l7.4,6.2l0,0
			c7.4,5.2,30.4-3.9,52-20.5c21.6-16.7,33.7-34.7,27.6-40.9l0,0l-7.4-6.2L210.7,184.3z"/>
		
			<line fill="none" stroke="#FFFFFF" stroke-width="1.3864" stroke-linecap="round" stroke-linejoin="round" x1="142.2" y1="240.4" x2="149.3" y2="246.4"/>
		
			<line fill="none" stroke="#FFFFFF" stroke-width="1.3864" stroke-linecap="round" stroke-linejoin="round" x1="147.3" y1="240" x2="154.4" y2="245.9"/>
		
			<line fill="none" stroke="#FFFFFF" stroke-width="1.3864" stroke-linecap="round" stroke-linejoin="round" x1="152.6" y1="238.7" x2="159.7" y2="244.7"/>
		
			<line fill="none" stroke="#FFFFFF" stroke-width="1.3864" stroke-linecap="round" stroke-linejoin="round" x1="157.6" y1="237.2" x2="164.8" y2="243.1"/>
		
			<line fill="none" stroke="#FFFFFF" stroke-width="1.3864" stroke-linecap="round" stroke-linejoin="round" x1="163.3" y1="235.2" x2="170.4" y2="241.1"/>
		
			<line fill="none" stroke="#FFFFFF" stroke-width="1.3864" stroke-linecap="round" stroke-linejoin="round" x1="169.6" y1="232.3" x2="176.8" y2="238.2"/>
		
			<line fill="none" stroke="#FFFFFF" stroke-width="1.3864" stroke-linecap="round" stroke-linejoin="round" x1="175.6" y1="228.6" x2="182.7" y2="234.6"/>
		
			<line fill="none" stroke="#FFFFFF" stroke-width="1.3864" stroke-linecap="round" stroke-linejoin="round" x1="183" y1="224.3" x2="190.1" y2="230.3"/>
		
			<line fill="none" stroke="#FFFFFF" stroke-width="1.3864" stroke-linecap="round" stroke-linejoin="round" x1="188.7" y1="220.2" x2="195.9" y2="226.2"/>
		
			<line fill="none" stroke="#FFFFFF" stroke-width="1.3864" stroke-linecap="round" stroke-linejoin="round" x1="194.5" y1="215.2" x2="201.6" y2="221.1"/>
		
			<line fill="none" stroke="#FFFFFF" stroke-width="1.3864" stroke-linecap="round" stroke-linejoin="round" x1="200.5" y1="210.2" x2="207.6" y2="216.1"/>
		
			<line fill="none" stroke="#FFFFFF" stroke-width="1.3864" stroke-linecap="round" stroke-linejoin="round" x1="205" y1="205.5" x2="212.1" y2="211.4"/>
		
			<line fill="none" stroke="#FFFFFF" stroke-width="1.3864" stroke-linecap="round" stroke-linejoin="round" x1="209.2" y1="200.8" x2="216.3" y2="206.7"/>
		
			<line fill="none" stroke="#FFFFFF" stroke-width="1.3864" stroke-linecap="round" stroke-linejoin="round" x1="212.8" y1="195.8" x2="219.9" y2="201.8"/>
		
			<line fill="none" stroke="#FFFFFF" stroke-width="1.3864" stroke-linecap="round" stroke-linejoin="round" x1="216.1" y1="190.6" x2="223.2" y2="196.6"/>
		
			<line fill="none" stroke="#FFFFFF" stroke-width="1.3864" stroke-linecap="round" stroke-linejoin="round" x1="217.7" y1="185.8" x2="224.8" y2="191.8"/>
		
			<line fill="none" stroke="#FFFFFF" stroke-width="1.3864" stroke-linecap="round" stroke-linejoin="round" x1="217.7" y1="181.6" x2="224.8" y2="187.5"/>
		<path fill="#FEDA4C" d="M217.7,179.3c7,5.8-5.2,24.3-27.2,41.3c-22,17-45.5,26-52.4,20.2c-7-5.8,5.2-24.3,27.2-41.3
			C187.3,182.6,210.8,173.5,217.7,179.3z"/>
		<path fill="#FFFFFF" d="M209.3,185.8c5.5,4.6-4.1,19.1-21.5,32.5s-35.9,20.5-41.3,15.9c-5.5-4.6,4.1-19.1,21.5-32.5
			C185.3,188.4,203.8,181.2,209.3,185.8z"/>
		<path fill="#FEDA4C" d="M206.8,187.7c5,4.2-3.8,17.6-19.8,30c-16,12.3-33,18.9-38.1,14.7c-5.1-4.2,3.8-17.6,19.8-30
			C184.7,190.1,201.8,183.5,206.8,187.7z"/>
	</g>
</g>
<g>
	<g>
		<path fill="#8A6472" d="M192.5,200.8c11.7-10.2,19-25.5,19-42.2c0-30.7-24.9-55.8-55.7-55.8c-30.7,0-55.7,24.8-55.7,55.6
			c0,16.7,7.4,32.3,19,42.5c-23.6,13-39.7,66-39.7,94.3h152.6C232.2,266.8,216.2,213.8,192.5,200.8z"/>
		<path fill="#FFFFFF" d="M129.6,142.6c3.5,0,6.3,2.8,6.3,6.3c0,3.5-2.8,6.3-6.3,6.3c-3.5,0-6.3-2.8-6.3-6.3
			C123.4,145.4,126.2,142.6,129.6,142.6z"/>
		<circle fill="#FFFFFF" cx="182.2" cy="148.9" r="6.3"/>
		<polygon fill="#FFFFFF" points="119.3,200.9 156.5,206.7 145,230.2 		"/>
		<polygon fill="#FFFFFF" points="194.1,200.9 156.8,206.7 168.3,230.2 		"/>
	</g>
	<g>
		<path fill="#ACADAE" d="M206.9,133.2h-39.3c-3.3,0-6,2.7-6,6v5.9h-9.7v-5.9c0-3.3-2.7-6-6.1-6h-39.3c-3.3,0-6,2.7-6,6v20.3
			c0,3.3,2.7,6,6,6h39.3c3.3,0,6.1-2.7,6.1-6v-5.9h9.7v5.9c0,3.3,2.7,6,6,6h39.3c3.3,0,6-2.7,6-6v-20.3
			C213,136,210.3,133.2,206.9,133.2"/>
		<path fill="#FFFFFF" d="M145.8,155.1c0,3.2-2.6,5.8-5.8,5.8h-28.6c-3.2,0-5.8-2.6-5.8-5.8v-11c0-3.2,2.6-5.8,5.8-5.8H140
			c3.2,0,5.8,2.6,5.8,5.8V155.1z"/>
		<path fill="#FFFFFF" d="M208.1,155.1c0,3.2-2.6,5.8-5.8,5.8h-28.6c-3.2,0-5.8-2.6-5.8-5.8v-11c0-3.2,2.6-5.8,5.8-5.8h28.6
			c3.2,0,5.8,2.6,5.8,5.8V155.1z"/>
		<g>
			<g>
				<defs>
					<path id="SVGID_11_" d="M206.9,133.2h-39.3c-3.3,0-6,2.7-6,6v5.9h-9.7v-5.9c0-3.3-2.7-6-6.1-6h-39.3c-3.3,0-6,2.7-6,6v20.3
						c0,3.3,2.7,6,6,6h39.3c3.3,0,6.1-2.7,6.1-6v-5.9h9.7v5.9c0,3.3,2.7,6,6,6h39.3c3.3,0,6-2.7,6-6v-20.3
						C213,136,210.3,133.2,206.9,133.2"/>
				</defs>
				<clipPath id="SVGID_12_">
					<use xlink:href="#SVGID_11_"  overflow="visible"/>
				</clipPath>
				<polygon opacity="0.2" clip-path="url(#SVGID_12_)" fill="#FFFFFF" enable-background="new    " points="207.4,127.5 
					86.6,170.4 93.3,125.6 				"/>
			</g>
		</g>
	</g>
	<path fill="#FFFFFF" d="M176.6,175.4c0,12.9-9,14.3-20,14.3c-11.1,0-20-1.3-20-14.3H176.6z"/>
</g>
<path fill="#DCDDDD" d="M169.8,11.2h57.4c6.8,0,12.3,5.5,12.3,12.3v53.1c0,28.4-30.2,33.3-30.2,33.3c7.4-2.5,9.3-13.8,9.8-21h-49.3
	c-6.8,0-12.3-5.5-12.3-12.3V23.5C157.5,16.7,163,11.2,169.8,11.2"/>
<path fill="#DCDDDD" d="M111.6,61.7H80.5c-3.7,0-6.7,3-6.7,6.7v28.7c0,15.4,16.4,18,16.4,18c-4-1.3-5.1-7.5-5.3-11.4h26.7
	c3.7,0,6.7-3,6.7-6.7V68.4C118.3,64.7,115.3,61.7,111.6,61.7"/>
</svg>
