<?xml version="1.0" encoding="utf-8"?>
<!-- Generator: Adobe Illustrator 17.1.0, SVG Export Plug-In . SVG Version: 6.00 Build 0)  -->
<!DOCTYPE svg PUBLIC "-//W3C//DTD SVG 1.1//EN" "http://www.w3.org/Graphics/SVG/1.1/DTD/svg11.dtd">
<svg version="1.1" id="圖層_1" xmlns="http://www.w3.org/2000/svg" xmlns:xlink="http://www.w3.org/1999/xlink" x="0px" y="0px"
	 viewBox="0 0 300 300" enable-background="new 0 0 300 300" xml:space="preserve">
<g display="none">
	<circle display="inline" fill="#FFFFFF" cx="151.485" cy="59.835" r="58.988"/>
	<g display="inline">
		<path fill="#00AFAD" d="M196.837,43.748h-35.98c-3.057,0-5.535,2.479-5.535,5.535v5.445h-8.857v-5.445
			c0-3.057-2.479-5.535-5.536-5.535h-35.981c-3.057,0-5.536,2.479-5.536,5.535v18.545c0,3.057,2.479,5.535,5.536,5.535h35.981
			c3.057,0,5.536-2.478,5.536-5.535v-5.444h8.857v5.444c0,3.057,2.479,5.535,5.535,5.535h35.98c3.058,0,5.536-2.478,5.536-5.535
			V49.284C202.374,46.227,199.895,43.748,196.837,43.748"/>
		<path fill="#FFFFFF" d="M140.86,63.705c0,2.915-2.363,5.279-5.28,5.279h-26.137c-2.916,0-5.28-2.364-5.28-5.279V53.672
			c0-2.916,2.364-5.28,5.28-5.28h26.137c2.917,0,5.28,2.364,5.28,5.28V63.705z"/>
		<path fill="#FFFFFF" d="M197.887,63.705c0,2.915-2.365,5.279-5.281,5.279h-26.137c-2.917,0-5.28-2.364-5.28-5.279V53.672
			c0-2.916,2.363-5.28,5.28-5.28h26.137c2.916,0,5.281,2.364,5.281,5.28V63.705z"/>
		<g>
			<defs>
				<path id="SVGID_1_" d="M196.837,43.748h-35.98c-3.057,0-5.535,2.479-5.535,5.535v5.445h-8.857v-5.445
					c0-3.057-2.479-5.535-5.536-5.535h-35.981c-3.057,0-5.536,2.479-5.536,5.535v18.545c0,3.057,2.479,5.535,5.536,5.535h35.981
					c3.057,0,5.536-2.478,5.536-5.535v-5.444h8.857v5.444c0,3.057,2.479,5.535,5.535,5.535h35.98c3.058,0,5.536-2.478,5.536-5.535
					V49.284C202.374,46.227,199.895,43.748,196.837,43.748"/>
			</defs>
			<clipPath id="SVGID_2_">
				<use xlink:href="#SVGID_1_"  overflow="visible"/>
			</clipPath>
			<polygon opacity="0.2" clip-path="url(#SVGID_2_)" fill="#FFFFFF" points="197.225,38.497 86.677,77.725 92.79,36.713 			"/>
		</g>
	</g>
	<g display="inline">
		<circle fill="#FFFFFF" cx="244.025" cy="245.824" r="55.024"/>
		<path fill="#F2A665" d="M276.249,228.415h-11.293c-0.641-9.549-8.568-17.1-18.278-17.1c-9.71,0-17.638,7.551-18.279,17.1h-11.525
			c-2.575,0-4.662,2.087-4.662,4.661v35.75c0,2.576,2.087,4.664,4.662,4.664h59.376c2.576,0,4.663-2.088,4.663-4.664v-35.75
			C280.913,230.502,278.826,228.415,276.249,228.415z M250.448,262.61h-7.771v-24.869h7.771V262.61z M233.996,228.415
			c0.624-6.457,6.064-11.505,12.683-11.505c6.62,0,12.059,5.048,12.684,11.505H233.996z"/>
		<g>
			<defs>
				<path id="SVGID_3_" d="M277.249,228.415h-11.293c-0.641-9.549-8.568-17.1-18.278-17.1c-9.71,0-17.638,7.551-18.279,17.1h-11.525
					c-2.575,0-4.662,2.087-4.662,4.661v35.75c0,2.576,2.087,4.664,4.662,4.664h59.376c2.576,0,4.663-2.088,4.663-4.664v-35.75
					C281.913,230.502,279.826,228.415,277.249,228.415z"/>
			</defs>
			<clipPath id="SVGID_4_">
				<use xlink:href="#SVGID_3_"  overflow="visible"/>
			</clipPath>
			<polygon opacity="0.2" clip-path="url(#SVGID_4_)" fill="#FFFFFF" points="273.715,206.653 204.08,286.237 203.769,216.913 			
				"/>
		</g>
	</g>
	<g display="inline">
		<circle fill="#FFFFFF" cx="55.024" cy="238.38" r="55.024"/>
		<g>
			<path fill="#F7B029" d="M65.379,242.577c-4.952-2.672-13.352-4.43-22.882-4.43s-17.93,1.758-22.882,4.43h-4.692v5.907h0.021
				c0.453,5.393,12.611,9.714,27.553,9.714c14.942,0,27.1-4.321,27.552-9.714h0.022v-5.907H65.379z"/>
			
				<line fill="none" stroke="#FFFFFF" stroke-width="0.812" stroke-linecap="round" stroke-linejoin="round" x1="16.572" y1="244.209" x2="16.572" y2="249.882"/>
			
				<line fill="none" stroke="#FFFFFF" stroke-width="0.812" stroke-linecap="round" stroke-linejoin="round" x1="18.575" y1="245.918" x2="18.575" y2="251.593"/>
			
				<line fill="none" stroke="#FFFFFF" stroke-width="0.812" stroke-linecap="round" stroke-linejoin="round" x1="21.05" y1="247.318" x2="21.05" y2="252.992"/>
			
				<line fill="none" stroke="#FFFFFF" stroke-width="0.812" stroke-linecap="round" stroke-linejoin="round" x1="23.524" y1="248.484" x2="23.524" y2="254.157"/>
			
				<line fill="none" stroke="#FFFFFF" stroke-width="0.812" stroke-linecap="round" stroke-linejoin="round" x1="26.411" y1="249.65" x2="26.411" y2="255.323"/>
			
				<line fill="none" stroke="#FFFFFF" stroke-width="0.812" stroke-linecap="round" stroke-linejoin="round" x1="29.947" y1="250.66" x2="29.947" y2="256.333"/>
			
				<line fill="none" stroke="#FFFFFF" stroke-width="0.812" stroke-linecap="round" stroke-linejoin="round" x1="33.658" y1="251.125" x2="33.658" y2="256.8"/>
			
				<line fill="none" stroke="#FFFFFF" stroke-width="0.812" stroke-linecap="round" stroke-linejoin="round" x1="38.195" y1="251.826" x2="38.195" y2="257.499"/>
			
				<line fill="none" stroke="#FFFFFF" stroke-width="0.812" stroke-linecap="round" stroke-linejoin="round" x1="42.025" y1="251.981" x2="42.025" y2="257.655"/>
			
				<line fill="none" stroke="#FFFFFF" stroke-width="0.812" stroke-linecap="round" stroke-linejoin="round" x1="46.267" y1="251.67" x2="46.267" y2="257.343"/>
			
				<line fill="none" stroke="#FFFFFF" stroke-width="0.812" stroke-linecap="round" stroke-linejoin="round" x1="50.569" y1="251.514" x2="50.569" y2="257.189"/>
			
				<line fill="none" stroke="#FFFFFF" stroke-width="0.812" stroke-linecap="round" stroke-linejoin="round" x1="54.221" y1="250.893" x2="54.221" y2="256.566"/>
			
				<line fill="none" stroke="#FFFFFF" stroke-width="0.812" stroke-linecap="round" stroke-linejoin="round" x1="57.756" y1="250.193" x2="57.756" y2="255.867"/>
			
				<line fill="none" stroke="#FFFFFF" stroke-width="0.812" stroke-linecap="round" stroke-linejoin="round" x1="61.174" y1="249.105" x2="61.174" y2="254.779"/>
			
				<line fill="none" stroke="#FFFFFF" stroke-width="0.812" stroke-linecap="round" stroke-linejoin="round" x1="64.591" y1="247.784" x2="64.591" y2="253.457"/>
			
				<line fill="none" stroke="#FFFFFF" stroke-width="0.812" stroke-linecap="round" stroke-linejoin="round" x1="67.243" y1="245.997" x2="67.243" y2="251.67"/>
			
				<line fill="none" stroke="#FFFFFF" stroke-width="0.812" stroke-linecap="round" stroke-linejoin="round" x1="69.069" y1="243.898" x2="69.069" y2="249.572"/>
			<ellipse fill="#FEDA4C" cx="42.496" cy="242.81" rx="27.574" ry="10.025"/>
			<ellipse fill="#FFFFFF" cx="42.497" cy="242.81" rx="21.741" ry="7.904"/>
			<ellipse fill="#FEDA4C" cx="42.497" cy="242.81" rx="20.031" ry="7.283"/>
		</g>
		<g>
			<path fill="#F7B029" d="M65.379,234.183c-4.952-2.672-13.352-4.43-22.882-4.43s-17.93,1.758-22.882,4.43h-4.692v5.907h0.021
				c0.453,5.393,12.611,9.714,27.553,9.714c14.942,0,27.1-4.321,27.552-9.714h0.022v-5.907H65.379z"/>
			
				<line fill="none" stroke="#FFFFFF" stroke-width="0.812" stroke-linecap="round" stroke-linejoin="round" x1="16.572" y1="235.816" x2="16.572" y2="241.489"/>
			
				<line fill="none" stroke="#FFFFFF" stroke-width="0.812" stroke-linecap="round" stroke-linejoin="round" x1="18.575" y1="237.526" x2="18.575" y2="243.2"/>
			
				<line fill="none" stroke="#FFFFFF" stroke-width="0.812" stroke-linecap="round" stroke-linejoin="round" x1="21.05" y1="238.924" x2="21.05" y2="244.598"/>
			
				<line fill="none" stroke="#FFFFFF" stroke-width="0.812" stroke-linecap="round" stroke-linejoin="round" x1="23.524" y1="240.09" x2="23.524" y2="245.764"/>
			
				<line fill="none" stroke="#FFFFFF" stroke-width="0.812" stroke-linecap="round" stroke-linejoin="round" x1="26.411" y1="241.256" x2="26.411" y2="246.929"/>
			
				<line fill="none" stroke="#FFFFFF" stroke-width="0.812" stroke-linecap="round" stroke-linejoin="round" x1="29.947" y1="242.266" x2="29.947" y2="247.94"/>
			
				<line fill="none" stroke="#FFFFFF" stroke-width="0.812" stroke-linecap="round" stroke-linejoin="round" x1="33.658" y1="242.733" x2="33.658" y2="248.406"/>
			
				<line fill="none" stroke="#FFFFFF" stroke-width="0.812" stroke-linecap="round" stroke-linejoin="round" x1="38.195" y1="243.432" x2="38.195" y2="249.105"/>
			
				<line fill="none" stroke="#FFFFFF" stroke-width="0.812" stroke-linecap="round" stroke-linejoin="round" x1="42.025" y1="243.587" x2="42.025" y2="249.261"/>
			
				<line fill="none" stroke="#FFFFFF" stroke-width="0.812" stroke-linecap="round" stroke-linejoin="round" x1="46.267" y1="243.277" x2="46.267" y2="248.95"/>
			
				<line fill="none" stroke="#FFFFFF" stroke-width="0.812" stroke-linecap="round" stroke-linejoin="round" x1="50.569" y1="243.121" x2="50.569" y2="248.795"/>
			
				<line fill="none" stroke="#FFFFFF" stroke-width="0.812" stroke-linecap="round" stroke-linejoin="round" x1="54.221" y1="242.499" x2="54.221" y2="248.173"/>
			
				<line fill="none" stroke="#FFFFFF" stroke-width="0.812" stroke-linecap="round" stroke-linejoin="round" x1="57.756" y1="241.799" x2="57.756" y2="247.473"/>
			
				<line fill="none" stroke="#FFFFFF" stroke-width="0.812" stroke-linecap="round" stroke-linejoin="round" x1="61.174" y1="240.711" x2="61.174" y2="246.386"/>
			
				<line fill="none" stroke="#FFFFFF" stroke-width="0.812" stroke-linecap="round" stroke-linejoin="round" x1="64.591" y1="239.39" x2="64.591" y2="245.064"/>
			
				<line fill="none" stroke="#FFFFFF" stroke-width="0.812" stroke-linecap="round" stroke-linejoin="round" x1="67.243" y1="237.603" x2="67.243" y2="243.277"/>
			
				<line fill="none" stroke="#FFFFFF" stroke-width="0.812" stroke-linecap="round" stroke-linejoin="round" x1="69.069" y1="235.504" x2="69.069" y2="241.178"/>
			<ellipse fill="#FEDA4C" cx="42.496" cy="234.416" rx="27.574" ry="10.025"/>
			<ellipse fill="#FFFFFF" cx="42.497" cy="234.416" rx="21.741" ry="7.904"/>
			<ellipse fill="#FEDA4C" cx="42.497" cy="234.416" rx="20.031" ry="7.283"/>
		</g>
		<g>
			<path fill="#F7B029" d="M65.379,227.189c-4.952-2.672-13.352-4.43-22.882-4.43s-17.93,1.758-22.882,4.43h-4.692v5.906h0.021
				c0.453,5.393,12.611,9.715,27.553,9.715c14.942,0,27.1-4.322,27.552-9.715h0.022v-5.906H65.379z"/>
			
				<line fill="none" stroke="#FFFFFF" stroke-width="0.812" stroke-linecap="round" stroke-linejoin="round" x1="16.572" y1="228.821" x2="16.572" y2="234.495"/>
			
				<line fill="none" stroke="#FFFFFF" stroke-width="0.812" stroke-linecap="round" stroke-linejoin="round" x1="18.575" y1="230.531" x2="18.575" y2="236.205"/>
			
				<line fill="none" stroke="#FFFFFF" stroke-width="0.812" stroke-linecap="round" stroke-linejoin="round" x1="21.05" y1="231.93" x2="21.05" y2="237.603"/>
			
				<line fill="none" stroke="#FFFFFF" stroke-width="0.812" stroke-linecap="round" stroke-linejoin="round" x1="23.524" y1="233.095" x2="23.524" y2="238.769"/>
			
				<line fill="none" stroke="#FFFFFF" stroke-width="0.812" stroke-linecap="round" stroke-linejoin="round" x1="26.411" y1="234.261" x2="26.411" y2="239.935"/>
			
				<line fill="none" stroke="#FFFFFF" stroke-width="0.812" stroke-linecap="round" stroke-linejoin="round" x1="29.947" y1="235.272" x2="29.947" y2="240.945"/>
			
				<line fill="none" stroke="#FFFFFF" stroke-width="0.812" stroke-linecap="round" stroke-linejoin="round" x1="33.658" y1="235.738" x2="33.658" y2="241.412"/>
			
				<line fill="none" stroke="#FFFFFF" stroke-width="0.812" stroke-linecap="round" stroke-linejoin="round" x1="38.195" y1="236.438" x2="38.195" y2="242.111"/>
			
				<line fill="none" stroke="#FFFFFF" stroke-width="0.812" stroke-linecap="round" stroke-linejoin="round" x1="42.025" y1="236.592" x2="42.025" y2="242.266"/>
			
				<line fill="none" stroke="#FFFFFF" stroke-width="0.812" stroke-linecap="round" stroke-linejoin="round" x1="46.267" y1="236.282" x2="46.267" y2="241.955"/>
			
				<line fill="none" stroke="#FFFFFF" stroke-width="0.812" stroke-linecap="round" stroke-linejoin="round" x1="50.569" y1="236.126" x2="50.569" y2="241.799"/>
			
				<line fill="none" stroke="#FFFFFF" stroke-width="0.812" stroke-linecap="round" stroke-linejoin="round" x1="54.221" y1="235.504" x2="54.221" y2="241.178"/>
			
				<line fill="none" stroke="#FFFFFF" stroke-width="0.812" stroke-linecap="round" stroke-linejoin="round" x1="57.756" y1="234.806" x2="57.756" y2="240.479"/>
			
				<line fill="none" stroke="#FFFFFF" stroke-width="0.812" stroke-linecap="round" stroke-linejoin="round" x1="61.174" y1="233.717" x2="61.174" y2="239.39"/>
			
				<line fill="none" stroke="#FFFFFF" stroke-width="0.812" stroke-linecap="round" stroke-linejoin="round" x1="64.591" y1="232.396" x2="64.591" y2="238.07"/>
			
				<line fill="none" stroke="#FFFFFF" stroke-width="0.812" stroke-linecap="round" stroke-linejoin="round" x1="67.243" y1="230.608" x2="67.243" y2="236.282"/>
			
				<line fill="none" stroke="#FFFFFF" stroke-width="0.812" stroke-linecap="round" stroke-linejoin="round" x1="69.069" y1="228.51" x2="69.069" y2="234.183"/>
			<ellipse fill="#FEDA4C" cx="42.496" cy="227.421" rx="27.574" ry="10.026"/>
			<ellipse fill="#FFFFFF" cx="42.497" cy="227.421" rx="21.741" ry="7.906"/>
			<ellipse fill="#FEDA4C" cx="42.497" cy="227.421" rx="20.031" ry="7.283"/>
		</g>
		<g>
			<path fill="#F7B029" d="M65.379,220.66c-4.952-2.672-13.352-4.429-22.882-4.429s-17.93,1.757-22.882,4.429h-4.692v5.907h0.021
				c0.453,5.393,12.611,9.715,27.553,9.715c14.942,0,27.1-4.322,27.552-9.715h0.022v-5.907H65.379z"/>
			
				<line fill="none" stroke="#FFFFFF" stroke-width="0.812" stroke-linecap="round" stroke-linejoin="round" x1="16.572" y1="222.293" x2="16.572" y2="227.966"/>
			
				<line fill="none" stroke="#FFFFFF" stroke-width="0.812" stroke-linecap="round" stroke-linejoin="round" x1="18.575" y1="224.002" x2="18.575" y2="229.676"/>
			
				<line fill="none" stroke="#FFFFFF" stroke-width="0.812" stroke-linecap="round" stroke-linejoin="round" x1="21.05" y1="225.401" x2="21.05" y2="231.075"/>
			
				<line fill="none" stroke="#FFFFFF" stroke-width="0.812" stroke-linecap="round" stroke-linejoin="round" x1="23.524" y1="226.567" x2="23.524" y2="232.241"/>
			
				<line fill="none" stroke="#FFFFFF" stroke-width="0.812" stroke-linecap="round" stroke-linejoin="round" x1="26.411" y1="227.733" x2="26.411" y2="233.407"/>
			
				<line fill="none" stroke="#FFFFFF" stroke-width="0.812" stroke-linecap="round" stroke-linejoin="round" x1="29.947" y1="228.744" x2="29.947" y2="234.417"/>
			
				<line fill="none" stroke="#FFFFFF" stroke-width="0.812" stroke-linecap="round" stroke-linejoin="round" x1="33.658" y1="229.21" x2="33.658" y2="234.883"/>
			
				<line fill="none" stroke="#FFFFFF" stroke-width="0.812" stroke-linecap="round" stroke-linejoin="round" x1="38.195" y1="229.909" x2="38.195" y2="235.583"/>
			
				<line fill="none" stroke="#FFFFFF" stroke-width="0.812" stroke-linecap="round" stroke-linejoin="round" x1="42.025" y1="230.065" x2="42.025" y2="235.738"/>
			
				<line fill="none" stroke="#FFFFFF" stroke-width="0.812" stroke-linecap="round" stroke-linejoin="round" x1="46.267" y1="229.753" x2="46.267" y2="235.426"/>
			
				<line fill="none" stroke="#FFFFFF" stroke-width="0.812" stroke-linecap="round" stroke-linejoin="round" x1="50.569" y1="229.598" x2="50.569" y2="235.272"/>
			
				<line fill="none" stroke="#FFFFFF" stroke-width="0.812" stroke-linecap="round" stroke-linejoin="round" x1="54.221" y1="228.977" x2="54.221" y2="234.65"/>
			
				<line fill="none" stroke="#FFFFFF" stroke-width="0.812" stroke-linecap="round" stroke-linejoin="round" x1="57.756" y1="228.277" x2="57.756" y2="233.951"/>
			
				<line fill="none" stroke="#FFFFFF" stroke-width="0.812" stroke-linecap="round" stroke-linejoin="round" x1="61.174" y1="227.189" x2="61.174" y2="232.863"/>
			
				<line fill="none" stroke="#FFFFFF" stroke-width="0.812" stroke-linecap="round" stroke-linejoin="round" x1="64.591" y1="225.868" x2="64.591" y2="231.541"/>
			
				<line fill="none" stroke="#FFFFFF" stroke-width="0.812" stroke-linecap="round" stroke-linejoin="round" x1="67.243" y1="224.08" x2="67.243" y2="229.753"/>
			
				<line fill="none" stroke="#FFFFFF" stroke-width="0.812" stroke-linecap="round" stroke-linejoin="round" x1="69.069" y1="221.982" x2="69.069" y2="227.656"/>
			<ellipse fill="#FEDA4C" cx="42.496" cy="220.894" rx="27.574" ry="10.025"/>
			<ellipse fill="#FFFFFF" cx="42.497" cy="220.894" rx="21.741" ry="7.904"/>
			<ellipse fill="#FEDA4C" cx="42.497" cy="220.894" rx="20.031" ry="7.283"/>
		</g>
		<g>
			<path fill="#F7B029" d="M96.79,243.984c-3.562-5.267-10.528-11.705-19.092-17.218c-8.564-5.512-16.698-8.791-22.037-9.254
				l-4.217-2.715l-1.964,5.309l0.019,0.013c-1.386,5.109,8.104,16.024,21.533,24.668c13.428,8.644,25.791,11.791,27.992,7.207
				l0.019,0.013l1.964-5.309L96.79,243.984z"/>
			
				<line fill="none" stroke="#FFFFFF" stroke-width="0.812" stroke-linecap="round" stroke-linejoin="round" x1="52.383" y1="217.219" x2="50.497" y2="222.317"/>
			
				<line fill="none" stroke="#FFFFFF" stroke-width="0.812" stroke-linecap="round" stroke-linejoin="round" x1="53.615" y1="219.914" x2="51.729" y2="225.013"/>
			
				<line fill="none" stroke="#FFFFFF" stroke-width="0.812" stroke-linecap="round" stroke-linejoin="round" x1="55.375" y1="222.603" x2="53.488" y2="227.703"/>
			
				<line fill="none" stroke="#FFFFFF" stroke-width="0.812" stroke-linecap="round" stroke-linejoin="round" x1="57.21" y1="225.081" x2="55.324" y2="230.182"/>
			
				<line fill="none" stroke="#FFFFFF" stroke-width="0.812" stroke-linecap="round" stroke-linejoin="round" x1="59.417" y1="227.799" x2="57.532" y2="232.898"/>
			
				<line fill="none" stroke="#FFFFFF" stroke-width="0.812" stroke-linecap="round" stroke-linejoin="round" x1="62.258" y1="230.752" x2="60.373" y2="235.851"/>
			
				<line fill="none" stroke="#FFFFFF" stroke-width="0.812" stroke-linecap="round" stroke-linejoin="round" x1="65.439" y1="233.319" x2="63.553" y2="238.417"/>
			
				<line fill="none" stroke="#FFFFFF" stroke-width="0.812" stroke-linecap="round" stroke-linejoin="round" x1="69.285" y1="236.572" x2="67.399" y2="241.67"/>
			
				<line fill="none" stroke="#FFFFFF" stroke-width="0.812" stroke-linecap="round" stroke-linejoin="round" x1="72.675" y1="238.927" x2="70.789" y2="244.025"/>
			
				<line fill="none" stroke="#FFFFFF" stroke-width="0.812" stroke-linecap="round" stroke-linejoin="round" x1="76.591" y1="241.101" x2="74.705" y2="246.2"/>
			
				<line fill="none" stroke="#FFFFFF" stroke-width="0.812" stroke-linecap="round" stroke-linejoin="round" x1="80.508" y1="243.45" x2="78.622" y2="248.548"/>
			
				<line fill="none" stroke="#FFFFFF" stroke-width="0.812" stroke-linecap="round" stroke-linejoin="round" x1="83.998" y1="245.003" x2="82.111" y2="250.102"/>
			
				<line fill="none" stroke="#FFFFFF" stroke-width="0.812" stroke-linecap="round" stroke-linejoin="round" x1="87.408" y1="246.42" x2="85.521" y2="251.518"/>
			
				<line fill="none" stroke="#FFFFFF" stroke-width="0.812" stroke-linecap="round" stroke-linejoin="round" x1="90.841" y1="247.418" x2="88.954" y2="252.518"/>
			
				<line fill="none" stroke="#FFFFFF" stroke-width="0.812" stroke-linecap="round" stroke-linejoin="round" x1="94.351" y1="248.208" x2="92.464" y2="253.307"/>
			
				<line fill="none" stroke="#FFFFFF" stroke-width="0.812" stroke-linecap="round" stroke-linejoin="round" x1="97.328" y1="248.135" x2="95.442" y2="253.234"/>
			
				<line fill="none" stroke="#FFFFFF" stroke-width="0.812" stroke-linecap="round" stroke-linejoin="round" x1="99.666" y1="247.306" x2="97.78" y2="252.405"/>
			<path fill="#FEDA4C" d="M100.929,246.908c-1.841,4.976-14.428,1.868-28.115-6.939c-13.686-8.81-23.289-19.985-21.449-24.961
				c1.841-4.977,14.429-1.869,28.115,6.939C93.166,230.756,102.77,241.931,100.929,246.908z"/>
			<path fill="#FFFFFF" d="M95.687,243.534c-1.452,3.923-11.376,1.473-22.167-5.473c-10.791-6.945-18.363-15.757-16.912-19.68
				c1.452-3.924,11.377-1.474,22.168,5.473C89.566,230.798,97.138,239.611,95.687,243.534z"/>
			<path fill="#FEDA4C" d="M94.15,242.545c-1.337,3.614-10.482,1.356-20.425-5.043c-9.942-6.398-16.918-14.518-15.581-18.132
				c1.337-3.615,10.481-1.358,20.424,5.041S95.488,238.929,94.15,242.545z"/>
		</g>
	</g>
	<g display="inline">
		<g>
			<polygon fill="#FAE2CD" points="147.352,211.465 122.871,179.752 146.983,131.306 171.544,179.529 			"/>
			<polygon fill="#595758" points="147.085,153.6 135.96,153.653 146.985,131.502 158.213,153.549 			"/>
		</g>
		<g>
			<polygon fill="#C06367" points="171.958,280.266 122.906,280.494 122.441,179.753 133.259,190.473 147.567,179.639 
				161.254,190.343 171.495,179.529 			"/>
			<g>
				<g>
					<defs>
						<polygon id="SVGID_5_" points="171.958,280.266 122.906,280.494 122.441,179.753 133.259,190.473 147.567,179.639 
							161.254,190.343 171.495,179.529 						"/>
					</defs>
					<clipPath id="SVGID_6_">
						<use xlink:href="#SVGID_5_"  overflow="visible"/>
					</clipPath>
					
						<line clip-path="url(#SVGID_6_)" fill="none" stroke="#954A50" stroke-width="1.5043" stroke-linecap="round" stroke-linejoin="round" stroke-miterlimit="10" x1="132.987" y1="183.484" x2="133.435" y2="280.444"/>
				</g>
				<g>
					<defs>
						<polygon id="SVGID_7_" points="171.958,280.266 122.906,280.494 122.441,179.753 133.259,190.473 147.567,179.639 
							161.254,190.343 171.495,179.529 						"/>
					</defs>
					<clipPath id="SVGID_8_">
						<use xlink:href="#SVGID_7_"  overflow="visible"/>
					</clipPath>
					
						<line clip-path="url(#SVGID_8_)" fill="none" stroke="#954A50" stroke-width="1.5043" stroke-linecap="round" stroke-linejoin="round" stroke-miterlimit="10" x1="161.462" y1="183.353" x2="161.908" y2="280.313"/>
				</g>
				<g>
					<defs>
						<polygon id="SVGID_9_" points="171.958,280.266 122.906,280.494 122.441,179.753 133.259,190.473 147.567,179.639 
							161.254,190.343 171.495,179.529 						"/>
					</defs>
					<clipPath id="SVGID_10_">
						<use xlink:href="#SVGID_9_"  overflow="visible"/>
					</clipPath>
					
						<line clip-path="url(#SVGID_10_)" fill="none" stroke="#954A50" stroke-width="1.5043" stroke-linecap="round" stroke-linejoin="round" stroke-miterlimit="10" x1="147.288" y1="171.265" x2="147.791" y2="280.378"/>
				</g>
			</g>
		</g>
		<polygon opacity="0.48" fill="#B5B5B6" enable-background="new    " points="146.985,131.502 133.259,190.473 133.64,273.266 
			122.873,273.314 122.441,179.753 		"/>
		<polygon opacity="0.48" fill="#B5B5B6" enable-background="new    " points="147.108,132.262 147.567,179.639 147.995,272.48 
			122.87,272.597 122.441,179.753 		"/>
		<g>
			<path fill="#FAE2CD" d="M170.303,284.581c0.018,3.965-3.181,7.195-7.146,7.212l-30.868,0.142
				c-3.964,0.021-7.194-3.181-7.211-7.146l0,0c-0.019-3.964,3.18-7.194,7.146-7.211l30.868-0.144
				C167.057,277.417,170.287,280.617,170.303,284.581L170.303,284.581z"/>
			
				<rect x="121.221" y="272.46" transform="matrix(-1 0.0046 -0.0046 -1 295.8942 555.4799)" fill="#B5B5B6" width="52.162" height="11.246"/>
			<polyline fill="#9FA0A0" points="173.409,283.609 121.248,283.851 121.195,272.603 			"/>
			<path opacity="0.4" fill="#FAE2CD" enable-background="new    " d="M131.414,291.939c0,0-6.224-0.45-6.26-8.187l45.064-0.208
				C170.218,283.544,131.378,284.124,131.414,291.939z"/>
		</g>
	</g>
</g>
<g display="none">
	<g display="inline">
		<path fill="#E8A743" d="M201.894,209.69c5.168-4.524,8.437-11.431,8.437-18.839c0-13.635-11.05-24.818-24.687-24.818
			c-13.636,0-24.688,10.987-24.688,24.621c0,7.412,3.267,14.542,8.439,19.067c-10.483,5.752-17.591,17.11-17.591,30.181h67.68
			C219.482,226.831,212.376,215.439,201.894,209.69z"/>
		<circle fill="#FFFFFF" cx="173.992" cy="186.429" r="2.773"/>
		<circle fill="#FFFFFF" cx="197.295" cy="186.429" r="2.773"/>
		<path fill="#FFFFFF" d="M196.182,196.337c0,6.534-4.532,7.21-10.124,7.21c-5.59,0-10.123-0.676-10.123-7.21H196.182z"/>
	</g>
	<g display="inline">
		<path fill="#E8A743" d="M259.175,209.69c5.171-4.524,8.44-11.431,8.44-18.839c0-13.635-11.053-24.818-24.689-24.818
			c-13.635,0-24.685,10.987-24.685,24.621c0,7.412,3.268,14.542,8.437,19.067c-10.484,5.752-17.591,17.11-17.591,30.181h67.681
			C276.768,226.831,269.661,215.439,259.175,209.69z"/>
		<circle fill="#FFFFFF" cx="231.276" cy="186.429" r="2.773"/>
		<circle fill="#FFFFFF" cx="254.578" cy="186.429" r="2.773"/>
		<path fill="#FFFFFF" d="M253.466,196.337c0,6.534-4.53,7.21-10.122,7.21c-5.594,0-10.123-0.676-10.123-7.21H253.466z"/>
	</g>
	<g display="inline">
		<path fill="#E8A743" d="M231.457,253.646c5.167-4.525,8.439-11.233,8.439-18.643c0-13.636-11.054-24.721-24.688-24.721
			c-13.634,0-24.688,11.038-24.688,24.669c0,7.412,3.27,14.176,8.438,18.701c-10.483,5.75-17.591,18.92-17.591,29.811h67.681
			C249.048,272.575,241.941,259.396,231.457,253.646z"/>
		<path fill="#FFFFFF" d="M203.56,228.002c1.529,0,2.771,1.244,2.771,2.775c0,1.532-1.242,2.773-2.771,2.773
			c-1.534,0-2.773-1.24-2.773-2.773C200.787,229.247,202.026,228.002,203.56,228.002z"/>
		<circle fill="#FFFFFF" cx="226.858" cy="230.776" r="2.774"/>
		<path fill="#FFFFFF" d="M225.749,242.08c0,4.357-4.532,7.211-10.125,7.211c-5.59,0-10.122-2.856-10.122-7.211H225.749z"/>
	</g>
	<path display="inline" fill="#DCDDDD" d="M88.066,18.666H34.17c-6.401,0-11.59,5.189-11.59,11.59v49.839
		c0,26.657,28.397,31.293,28.397,31.293c-6.971-2.323-8.764-12.921-9.188-19.703h46.276c6.401,0,11.59-5.189,11.59-11.59V30.256
		C99.656,23.855,94.467,18.666,88.066,18.666"/>
	<path display="inline" fill="#DCDDDD" d="M180.061,60.156h53.895c6.398,0,11.59,5.189,11.59,11.59v49.838
		c0,26.658-28.396,31.294-28.396,31.294c6.97-2.323,8.763-12.923,9.187-19.704h-46.276c-6.401,0-11.59-5.189-11.59-11.59V71.746
		C168.471,65.345,173.66,60.156,180.061,60.156"/>
	<g display="inline">
		<path fill="#E8A743" d="M117.374,155.83c6.576-5.758,10.735-14.395,10.735-23.821c0-17.344-14.06-31.499-31.405-31.499
			c-17.342,0-31.402,14.013-31.402,31.356c0,9.426,4.158,18.23,10.734,23.985c-13.335,7.314-22.378,22.132-22.378,38.121h86.093
			C139.751,177.986,130.709,163.145,117.374,155.83z"/>
		<circle fill="#FFFFFF" cx="81.885" cy="126.528" r="3.529"/>
		<circle fill="#FFFFFF" cx="111.524" cy="126.528" r="3.529"/>
		<path fill="#FFFFFF" d="M110.114,139.857c0,6.151-5.768,9.175-12.878,9.175c-7.113,0-12.879-3.024-12.879-9.175H110.114z"/>
	</g>
</g>
<g display="none">
	<g display="inline">
		<rect x="25.822" y="13.258" fill="#DDDDDD" width="191.944" height="264.989"/>
		<rect x="30.088" y="23.388" fill="#F0EFEF" width="191.943" height="264.99"/>
		<rect x="37.552" y="16.457" fill="#F7F9F9" width="191.944" height="264.99"/>
		<rect x="93.803" y="28.187" opacity="0.54" fill="#C9CACA" enable-background="new    " width="79.445" height="19.727"/>
		<g opacity="0.54">
			<rect x="82.606" y="68.709" fill="#9FA0A0" width="118.367" height="4.265"/>
			<rect x="66.077" y="79.905" fill="#9FA0A0" width="134.895" height="4.266"/>
			<rect x="66.077" y="91.102" fill="#9FA0A0" width="134.895" height="4.265"/>
			<rect x="66.077" y="102.298" fill="#9FA0A0" width="134.895" height="4.266"/>
		</g>
		<g opacity="0.54">
			<rect x="82.606" y="134.289" fill="#9FA0A0" width="118.367" height="4.266"/>
			<rect x="66.077" y="145.486" fill="#9FA0A0" width="134.895" height="4.266"/>
			<rect x="66.077" y="156.683" fill="#9FA0A0" width="134.895" height="4.265"/>
			<rect x="66.077" y="167.879" fill="#9FA0A0" width="134.895" height="4.266"/>
		</g>
		<g opacity="0.54">
			<rect x="82.606" y="202.536" fill="#9FA0A0" width="118.367" height="4.266"/>
			<rect x="66.077" y="213.733" fill="#9FA0A0" width="134.895" height="4.266"/>
			<rect x="66.077" y="224.93" fill="#9FA0A0" width="134.895" height="4.264"/>
			<rect x="66.077" y="236.126" fill="#9FA0A0" width="134.895" height="4.265"/>
		</g>
	</g>
	<g display="inline">
		<path fill="#F7B029" d="M278.41,232.589c-8.455-4.563-22.798-7.563-39.068-7.563c-16.27,0-30.613,3.001-39.069,7.563h-8.011
			v10.086h0.037c0.771,9.207,21.53,16.585,47.043,16.585c25.511,0,46.27-7.378,47.043-16.585h0.037v-10.086H278.41z"/>
		
			<line fill="none" stroke="#FFFFFF" stroke-width="1.3864" stroke-linecap="round" stroke-linejoin="round" x1="195.078" y1="235.376" x2="195.078" y2="245.063"/>
		
			<line fill="none" stroke="#FFFFFF" stroke-width="1.3864" stroke-linecap="round" stroke-linejoin="round" x1="198.498" y1="238.294" x2="198.498" y2="247.984"/>
		
			<line fill="none" stroke="#FFFFFF" stroke-width="1.3864" stroke-linecap="round" stroke-linejoin="round" x1="202.722" y1="240.684" x2="202.722" y2="250.372"/>
		
			<line fill="none" stroke="#FFFFFF" stroke-width="1.3864" stroke-linecap="round" stroke-linejoin="round" x1="206.948" y1="242.675" x2="206.948" y2="252.361"/>
		
			<line fill="none" stroke="#FFFFFF" stroke-width="1.3864" stroke-linecap="round" stroke-linejoin="round" x1="211.876" y1="244.665" x2="211.876" y2="254.351"/>
		
			<line fill="none" stroke="#FFFFFF" stroke-width="1.3864" stroke-linecap="round" stroke-linejoin="round" x1="217.914" y1="246.39" x2="217.914" y2="256.078"/>
		
			<line fill="none" stroke="#FFFFFF" stroke-width="1.3864" stroke-linecap="round" stroke-linejoin="round" x1="224.251" y1="247.185" x2="224.251" y2="256.874"/>
		
			<line fill="none" stroke="#FFFFFF" stroke-width="1.3864" stroke-linecap="round" stroke-linejoin="round" x1="231.999" y1="248.38" x2="231.999" y2="258.067"/>
		
			<line fill="none" stroke="#FFFFFF" stroke-width="1.3864" stroke-linecap="round" stroke-linejoin="round" x1="238.536" y1="248.646" x2="238.536" y2="258.333"/>
		
			<line fill="none" stroke="#FFFFFF" stroke-width="1.3864" stroke-linecap="round" stroke-linejoin="round" x1="245.779" y1="248.116" x2="245.779" y2="257.801"/>
		
			<line fill="none" stroke="#FFFFFF" stroke-width="1.3864" stroke-linecap="round" stroke-linejoin="round" x1="253.124" y1="247.849" x2="253.124" y2="257.538"/>
		
			<line fill="none" stroke="#FFFFFF" stroke-width="1.3864" stroke-linecap="round" stroke-linejoin="round" x1="259.36" y1="246.788" x2="259.36" y2="256.474"/>
		
			<line fill="none" stroke="#FFFFFF" stroke-width="1.3864" stroke-linecap="round" stroke-linejoin="round" x1="265.396" y1="245.593" x2="265.396" y2="255.28"/>
		
			<line fill="none" stroke="#FFFFFF" stroke-width="1.3864" stroke-linecap="round" stroke-linejoin="round" x1="271.231" y1="243.736" x2="271.231" y2="253.422"/>
		
			<line fill="none" stroke="#FFFFFF" stroke-width="1.3864" stroke-linecap="round" stroke-linejoin="round" x1="277.066" y1="241.479" x2="277.066" y2="251.166"/>
		
			<line fill="none" stroke="#FFFFFF" stroke-width="1.3864" stroke-linecap="round" stroke-linejoin="round" x1="281.592" y1="238.428" x2="281.592" y2="248.116"/>
		
			<line fill="none" stroke="#FFFFFF" stroke-width="1.3864" stroke-linecap="round" stroke-linejoin="round" x1="284.71" y1="234.845" x2="284.71" y2="244.533"/>
		<ellipse fill="#FEDA4C" cx="239.341" cy="232.988" rx="47.08" ry="17.117"/>
		<ellipse fill="#FFFFFF" cx="239.342" cy="232.988" rx="37.121" ry="13.495"/>
		<ellipse fill="#FEDA4C" cx="239.341" cy="232.988" rx="34.201" ry="12.435"/>
	</g>
	<g display="inline">
		<path fill="#F7B029" d="M278.41,218.258c-8.455-4.563-22.798-7.564-39.068-7.564c-16.27,0-30.613,3.001-39.069,7.564h-8.011
			v10.086h0.037c0.771,9.207,21.53,16.585,47.043,16.585c25.511,0,46.27-7.378,47.043-16.585h0.037v-10.086H278.41z"/>
		
			<line fill="none" stroke="#FFFFFF" stroke-width="1.3864" stroke-linecap="round" stroke-linejoin="round" x1="195.078" y1="221.045" x2="195.078" y2="230.732"/>
		
			<line fill="none" stroke="#FFFFFF" stroke-width="1.3864" stroke-linecap="round" stroke-linejoin="round" x1="198.498" y1="223.965" x2="198.498" y2="233.653"/>
		
			<line fill="none" stroke="#FFFFFF" stroke-width="1.3864" stroke-linecap="round" stroke-linejoin="round" x1="202.722" y1="226.353" x2="202.722" y2="236.04"/>
		
			<line fill="none" stroke="#FFFFFF" stroke-width="1.3864" stroke-linecap="round" stroke-linejoin="round" x1="206.948" y1="228.344" x2="206.948" y2="238.032"/>
		
			<line fill="none" stroke="#FFFFFF" stroke-width="1.3864" stroke-linecap="round" stroke-linejoin="round" x1="211.876" y1="230.334" x2="211.876" y2="240.02"/>
		
			<line fill="none" stroke="#FFFFFF" stroke-width="1.3864" stroke-linecap="round" stroke-linejoin="round" x1="217.914" y1="232.059" x2="217.914" y2="241.747"/>
		
			<line fill="none" stroke="#FFFFFF" stroke-width="1.3864" stroke-linecap="round" stroke-linejoin="round" x1="224.251" y1="232.856" x2="224.251" y2="242.541"/>
		
			<line fill="none" stroke="#FFFFFF" stroke-width="1.3864" stroke-linecap="round" stroke-linejoin="round" x1="231.999" y1="234.049" x2="231.999" y2="243.736"/>
		
			<line fill="none" stroke="#FFFFFF" stroke-width="1.3864" stroke-linecap="round" stroke-linejoin="round" x1="238.536" y1="234.315" x2="238.536" y2="244.002"/>
		
			<line fill="none" stroke="#FFFFFF" stroke-width="1.3864" stroke-linecap="round" stroke-linejoin="round" x1="245.779" y1="233.785" x2="245.779" y2="243.47"/>
		
			<line fill="none" stroke="#FFFFFF" stroke-width="1.3864" stroke-linecap="round" stroke-linejoin="round" x1="253.124" y1="233.518" x2="253.124" y2="243.206"/>
		
			<line fill="none" stroke="#FFFFFF" stroke-width="1.3864" stroke-linecap="round" stroke-linejoin="round" x1="259.36" y1="232.457" x2="259.36" y2="242.145"/>
		
			<line fill="none" stroke="#FFFFFF" stroke-width="1.3864" stroke-linecap="round" stroke-linejoin="round" x1="265.396" y1="231.262" x2="265.396" y2="240.95"/>
		
			<line fill="none" stroke="#FFFFFF" stroke-width="1.3864" stroke-linecap="round" stroke-linejoin="round" x1="271.231" y1="229.405" x2="271.231" y2="239.093"/>
		
			<line fill="none" stroke="#FFFFFF" stroke-width="1.3864" stroke-linecap="round" stroke-linejoin="round" x1="277.066" y1="227.149" x2="277.066" y2="236.835"/>
		
			<line fill="none" stroke="#FFFFFF" stroke-width="1.3864" stroke-linecap="round" stroke-linejoin="round" x1="281.592" y1="224.097" x2="281.592" y2="233.785"/>
		
			<line fill="none" stroke="#FFFFFF" stroke-width="1.3864" stroke-linecap="round" stroke-linejoin="round" x1="284.71" y1="220.514" x2="284.71" y2="230.202"/>
		<ellipse fill="#FEDA4C" cx="239.341" cy="218.657" rx="47.08" ry="17.117"/>
		<ellipse fill="#FFFFFF" cx="239.342" cy="218.657" rx="37.121" ry="13.495"/>
		<ellipse fill="#FEDA4C" cx="239.341" cy="218.657" rx="34.201" ry="12.436"/>
	</g>
	<g display="inline">
		<path fill="#F7B029" d="M278.41,206.317c-8.455-4.562-22.798-7.564-39.068-7.564c-16.27,0-30.613,3.001-39.069,7.564h-8.011
			v10.084h0.037c0.771,9.207,21.53,16.587,47.043,16.587c25.511,0,46.27-7.38,47.043-16.587h0.037v-10.084H278.41z"/>
		
			<line fill="none" stroke="#FFFFFF" stroke-width="1.3864" stroke-linecap="round" stroke-linejoin="round" x1="195.078" y1="209.102" x2="195.078" y2="218.789"/>
		
			<line fill="none" stroke="#FFFFFF" stroke-width="1.3864" stroke-linecap="round" stroke-linejoin="round" x1="198.498" y1="212.022" x2="198.498" y2="221.709"/>
		
			<line fill="none" stroke="#FFFFFF" stroke-width="1.3864" stroke-linecap="round" stroke-linejoin="round" x1="202.722" y1="214.412" x2="202.722" y2="224.097"/>
		
			<line fill="none" stroke="#FFFFFF" stroke-width="1.3864" stroke-linecap="round" stroke-linejoin="round" x1="206.948" y1="216.401" x2="206.948" y2="226.088"/>
		
			<line fill="none" stroke="#FFFFFF" stroke-width="1.3864" stroke-linecap="round" stroke-linejoin="round" x1="211.876" y1="218.391" x2="211.876" y2="228.079"/>
		
			<line fill="none" stroke="#FFFFFF" stroke-width="1.3864" stroke-linecap="round" stroke-linejoin="round" x1="217.914" y1="220.118" x2="217.914" y2="229.803"/>
		
			<line fill="none" stroke="#FFFFFF" stroke-width="1.3864" stroke-linecap="round" stroke-linejoin="round" x1="224.251" y1="220.913" x2="224.251" y2="230.6"/>
		
			<line fill="none" stroke="#FFFFFF" stroke-width="1.3864" stroke-linecap="round" stroke-linejoin="round" x1="231.999" y1="222.108" x2="231.999" y2="231.793"/>
		
			<line fill="none" stroke="#FFFFFF" stroke-width="1.3864" stroke-linecap="round" stroke-linejoin="round" x1="238.536" y1="222.372" x2="238.536" y2="232.059"/>
		
			<line fill="none" stroke="#FFFFFF" stroke-width="1.3864" stroke-linecap="round" stroke-linejoin="round" x1="245.779" y1="221.841" x2="245.779" y2="231.529"/>
		
			<line fill="none" stroke="#FFFFFF" stroke-width="1.3864" stroke-linecap="round" stroke-linejoin="round" x1="253.124" y1="221.576" x2="253.124" y2="231.262"/>
		
			<line fill="none" stroke="#FFFFFF" stroke-width="1.3864" stroke-linecap="round" stroke-linejoin="round" x1="259.36" y1="220.514" x2="259.36" y2="230.202"/>
		
			<line fill="none" stroke="#FFFFFF" stroke-width="1.3864" stroke-linecap="round" stroke-linejoin="round" x1="265.396" y1="219.322" x2="265.396" y2="229.007"/>
		
			<line fill="none" stroke="#FFFFFF" stroke-width="1.3864" stroke-linecap="round" stroke-linejoin="round" x1="271.231" y1="217.462" x2="271.231" y2="227.149"/>
		
			<line fill="none" stroke="#FFFFFF" stroke-width="1.3864" stroke-linecap="round" stroke-linejoin="round" x1="277.066" y1="215.206" x2="277.066" y2="224.894"/>
		
			<line fill="none" stroke="#FFFFFF" stroke-width="1.3864" stroke-linecap="round" stroke-linejoin="round" x1="281.592" y1="212.154" x2="281.592" y2="221.841"/>
		
			<line fill="none" stroke="#FFFFFF" stroke-width="1.3864" stroke-linecap="round" stroke-linejoin="round" x1="284.71" y1="208.573" x2="284.71" y2="218.258"/>
		<ellipse fill="#FEDA4C" cx="239.341" cy="206.713" rx="47.08" ry="17.119"/>
		<ellipse fill="#FFFFFF" cx="239.342" cy="206.713" rx="37.121" ry="13.499"/>
		<ellipse fill="#FEDA4C" cx="239.341" cy="206.713" rx="34.201" ry="12.436"/>
	</g>
	<g display="inline">
		<path fill="#F7B029" d="M278.41,195.168c-8.455-4.562-22.798-7.562-39.068-7.562c-16.27,0-30.613,2.999-39.069,7.562h-8.011
			v10.086h0.037c0.771,9.207,21.53,16.587,47.043,16.587c25.511,0,46.27-7.38,47.043-16.587h0.037v-10.086H278.41z"/>
		
			<line fill="none" stroke="#FFFFFF" stroke-width="1.3864" stroke-linecap="round" stroke-linejoin="round" x1="195.078" y1="197.957" x2="195.078" y2="207.644"/>
		
			<line fill="none" stroke="#FFFFFF" stroke-width="1.3864" stroke-linecap="round" stroke-linejoin="round" x1="198.498" y1="200.875" x2="198.498" y2="210.563"/>
		
			<line fill="none" stroke="#FFFFFF" stroke-width="1.3864" stroke-linecap="round" stroke-linejoin="round" x1="202.722" y1="203.263" x2="202.722" y2="212.951"/>
		
			<line fill="none" stroke="#FFFFFF" stroke-width="1.3864" stroke-linecap="round" stroke-linejoin="round" x1="206.948" y1="205.254" x2="206.948" y2="214.942"/>
		
			<line fill="none" stroke="#FFFFFF" stroke-width="1.3864" stroke-linecap="round" stroke-linejoin="round" x1="211.876" y1="207.245" x2="211.876" y2="216.932"/>
		
			<line fill="none" stroke="#FFFFFF" stroke-width="1.3864" stroke-linecap="round" stroke-linejoin="round" x1="217.914" y1="208.971" x2="217.914" y2="218.659"/>
		
			<line fill="none" stroke="#FFFFFF" stroke-width="1.3864" stroke-linecap="round" stroke-linejoin="round" x1="224.251" y1="209.768" x2="224.251" y2="219.454"/>
		
			<line fill="none" stroke="#FFFFFF" stroke-width="1.3864" stroke-linecap="round" stroke-linejoin="round" x1="231.999" y1="210.96" x2="231.999" y2="220.649"/>
		
			<line fill="none" stroke="#FFFFFF" stroke-width="1.3864" stroke-linecap="round" stroke-linejoin="round" x1="238.536" y1="211.227" x2="238.536" y2="220.913"/>
		
			<line fill="none" stroke="#FFFFFF" stroke-width="1.3864" stroke-linecap="round" stroke-linejoin="round" x1="245.779" y1="210.695" x2="245.779" y2="220.38"/>
		
			<line fill="none" stroke="#FFFFFF" stroke-width="1.3864" stroke-linecap="round" stroke-linejoin="round" x1="253.124" y1="210.43" x2="253.124" y2="220.118"/>
		
			<line fill="none" stroke="#FFFFFF" stroke-width="1.3864" stroke-linecap="round" stroke-linejoin="round" x1="259.36" y1="209.37" x2="259.36" y2="219.055"/>
		
			<line fill="none" stroke="#FFFFFF" stroke-width="1.3864" stroke-linecap="round" stroke-linejoin="round" x1="265.396" y1="208.174" x2="265.396" y2="217.861"/>
		
			<line fill="none" stroke="#FFFFFF" stroke-width="1.3864" stroke-linecap="round" stroke-linejoin="round" x1="271.231" y1="206.317" x2="271.231" y2="216.003"/>
		
			<line fill="none" stroke="#FFFFFF" stroke-width="1.3864" stroke-linecap="round" stroke-linejoin="round" x1="277.066" y1="204.06" x2="277.066" y2="213.747"/>
		
			<line fill="none" stroke="#FFFFFF" stroke-width="1.3864" stroke-linecap="round" stroke-linejoin="round" x1="281.592" y1="201.009" x2="281.592" y2="210.695"/>
		
			<line fill="none" stroke="#FFFFFF" stroke-width="1.3864" stroke-linecap="round" stroke-linejoin="round" x1="284.71" y1="197.426" x2="284.71" y2="207.114"/>
		<ellipse fill="#FEDA4C" cx="239.341" cy="195.569" rx="47.08" ry="17.117"/>
		<ellipse fill="#FFFFFF" cx="239.342" cy="195.569" rx="37.121" ry="13.495"/>
		<ellipse fill="#FEDA4C" cx="239.341" cy="195.569" rx="34.201" ry="12.435"/>
	</g>
	<g display="inline">
		<path fill="#F7B029" d="M210.673,184.305c-10.511,2.718-24.853,10.239-38.62,20.863c-13.766,10.624-23.694,21.833-27.493,30.156
			l-6.78,5.231l7.417,6.197l0.031-0.023c7.427,5.152,30.414-3.87,52.001-20.529c21.587-16.656,33.723-34.745,27.607-40.908
			l0.031-0.023l-7.416-6.195L210.673,184.305z"/>
		
			<line fill="none" stroke="#FFFFFF" stroke-width="1.3864" stroke-linecap="round" stroke-linejoin="round" x1="142.214" y1="240.43" x2="149.335" y2="246.381"/>
		
			<line fill="none" stroke="#FFFFFF" stroke-width="1.3864" stroke-linecap="round" stroke-linejoin="round" x1="147.254" y1="239.99" x2="154.378" y2="245.941"/>
		
			<line fill="none" stroke="#FFFFFF" stroke-width="1.3864" stroke-linecap="round" stroke-linejoin="round" x1="152.587" y1="238.699" x2="159.71" y2="244.651"/>
		
			<line fill="none" stroke="#FFFFFF" stroke-width="1.3864" stroke-linecap="round" stroke-linejoin="round" x1="157.624" y1="237.163" x2="164.749" y2="243.116"/>
		
			<line fill="none" stroke="#FFFFFF" stroke-width="1.3864" stroke-linecap="round" stroke-linejoin="round" x1="163.258" y1="235.166" x2="170.381" y2="241.117"/>
		
			<line fill="none" stroke="#FFFFFF" stroke-width="1.3864" stroke-linecap="round" stroke-linejoin="round" x1="169.634" y1="232.286" x2="176.757" y2="238.236"/>
		
			<line fill="none" stroke="#FFFFFF" stroke-width="1.3864" stroke-linecap="round" stroke-linejoin="round" x1="175.583" y1="228.636" x2="182.706" y2="234.587"/>
		
			<line fill="none" stroke="#FFFFFF" stroke-width="1.3864" stroke-linecap="round" stroke-linejoin="round" x1="183.015" y1="224.312" x2="190.138" y2="230.262"/>
		
			<line fill="none" stroke="#FFFFFF" stroke-width="1.3864" stroke-linecap="round" stroke-linejoin="round" x1="188.743" y1="220.205" x2="195.866" y2="226.156"/>
		
			<line fill="none" stroke="#FFFFFF" stroke-width="1.3864" stroke-linecap="round" stroke-linejoin="round" x1="194.48" y1="215.151" x2="201.604" y2="221.101"/>
		
			<line fill="none" stroke="#FFFFFF" stroke-width="1.3864" stroke-linecap="round" stroke-linejoin="round" x1="200.499" y1="210.191" x2="207.623" y2="216.142"/>
		
			<line fill="none" stroke="#FFFFFF" stroke-width="1.3864" stroke-linecap="round" stroke-linejoin="round" x1="204.996" y1="205.466" x2="212.119" y2="211.416"/>
		
			<line fill="none" stroke="#FFFFFF" stroke-width="1.3864" stroke-linecap="round" stroke-linejoin="round" x1="209.226" y1="200.791" x2="216.347" y2="206.743"/>
		
			<line fill="none" stroke="#FFFFFF" stroke-width="1.3864" stroke-linecap="round" stroke-linejoin="round" x1="212.795" y1="195.84" x2="219.919" y2="201.792"/>
		
			<line fill="none" stroke="#FFFFFF" stroke-width="1.3864" stroke-linecap="round" stroke-linejoin="round" x1="216.074" y1="190.646" x2="223.197" y2="196.596"/>
		
			<line fill="none" stroke="#FFFFFF" stroke-width="1.3864" stroke-linecap="round" stroke-linejoin="round" x1="217.66" y1="185.813" x2="224.783" y2="191.764"/>
		
			<line fill="none" stroke="#FFFFFF" stroke-width="1.3864" stroke-linecap="round" stroke-linejoin="round" x1="217.664" y1="181.578" x2="224.787" y2="187.53"/>
		<path fill="#FEDA4C" d="M217.745,179.319c6.951,5.807-5.249,24.279-27.247,41.258c-22.001,16.979-45.472,26.031-52.424,20.226
			c-6.953-5.807,5.246-24.279,27.246-41.26C187.322,182.567,210.792,173.51,217.745,179.319z"/>
		<path fill="#FFFFFF" d="M209.318,185.823c5.479,4.579-4.138,19.142-21.484,32.528c-17.346,13.386-35.852,20.526-41.333,15.948
			c-5.482-4.58,4.138-19.146,21.485-32.531C185.33,188.381,203.837,181.243,209.318,185.823z"/>
		<path fill="#FEDA4C" d="M206.849,187.727c5.049,4.22-3.814,17.64-19.797,29.974c-15.98,12.332-33.033,18.911-38.082,14.691
			c-5.052-4.218,3.811-17.638,19.794-29.972C184.746,190.088,201.797,183.507,206.849,187.727z"/>
	</g>
</g>
<g display="none">
	<g display="inline">
		<path fill="#8A6472" d="M217.683,180.973c20.086-17.585,32.786-43.966,32.786-72.751c0-52.971-42.945-96.206-95.916-96.206
			c-52.968,0-95.908,42.8-95.908,95.768c0,28.789,12.7,55.68,32.785,73.256c-40.73,22.34-68.348,67.595-68.348,116.429h262.944
			C286.027,248.64,258.415,203.314,217.683,180.973z"/>
		<path fill="#FFFFFF" d="M109.296,80.699c5.95,0,10.78,4.829,10.78,10.779c0,5.953-4.83,10.776-10.78,10.776
			c-5.953,0-10.779-4.823-10.779-10.776C98.517,85.527,103.343,80.699,109.296,80.699z"/>
		<circle fill="#FFFFFF" cx="199.818" cy="91.477" r="10.778"/>
		<g>
			<path fill="#FFFFFF" d="M142.696,122.583c0,0-16.069-1.786-18.925,13.569c-2.856,15.356-30.353,5.758-30.353-1.071
				c0,0,4.999,32.139,47.493,20.71c0,0,15.712-4.641,15.712-20.71C156.98,122.939,142.696,122.583,142.696,122.583z"/>
			<path fill="#FFFFFF" d="M167.475,122.583c0,0,16.069-1.786,18.925,13.569c2.857,15.356,30.354,5.758,30.354-1.071
				c0,0-5,32.139-47.493,20.71c0,0-15.712-4.641-15.712-20.71C153.191,122.939,167.475,122.583,167.475,122.583z"/>
		</g>
	</g>
	<g display="inline">
		<path fill="#ACADAE" d="M242.493,64.529h-67.743c-5.755,0-10.422,4.667-10.422,10.422v10.252h-16.675V74.951
			c0-5.755-4.669-10.422-10.426-10.422H69.482c-5.756,0-10.424,4.667-10.424,10.422v34.917c0,5.756,4.667,10.422,10.424,10.422
			h67.745c5.757,0,10.426-4.666,10.426-10.422V99.617h16.675v10.251c0,5.756,4.667,10.422,10.422,10.422h67.743
			c5.758,0,10.425-4.666,10.425-10.422V74.951C252.917,69.196,248.25,64.529,242.493,64.529"/>
		<path fill="#FFFFFF" d="M137.098,102.104c0,5.488-4.449,9.94-9.939,9.94h-49.21c-5.491,0-9.942-4.452-9.942-9.94v-18.89
			c0-5.49,4.452-9.942,9.942-9.942h49.21c5.49,0,9.939,4.452,9.939,9.942V102.104z"/>
		<path fill="#FFFFFF" d="M244.47,102.104c0,5.488-4.453,9.94-9.943,9.94h-49.21c-5.493,0-9.943-4.452-9.943-9.94v-18.89
			c0-5.49,4.45-9.942,9.943-9.942h49.21c5.49,0,9.943,4.452,9.943,9.942V102.104z"/>
		<g>
			<defs>
				<path id="SVGID_11_" d="M242.493,64.529h-67.743c-5.755,0-10.422,4.667-10.422,10.422v10.252h-16.675V74.951
					c0-5.755-4.669-10.422-10.426-10.422H69.482c-5.756,0-10.424,4.667-10.424,10.422v34.917c0,5.756,4.667,10.422,10.424,10.422
					h67.745c5.757,0,10.426-4.666,10.426-10.422V99.617h16.675v10.251c0,5.756,4.667,10.422,10.422,10.422h67.743
					c5.758,0,10.425-4.666,10.425-10.422V74.951C252.917,69.196,248.25,64.529,242.493,64.529"/>
			</defs>
			<clipPath id="SVGID_12_">
				<use xlink:href="#SVGID_11_"  overflow="visible"/>
			</clipPath>
			<polygon opacity="0.2" clip-path="url(#SVGID_12_)" fill="#FFFFFF" points="243.223,54.642 35.082,128.5 46.592,51.284 			"/>
		</g>
	</g>
</g>
<g id="圖層_2">
	<g>
		<path fill="none" d="M58.672,66.009c-14.047,2.459-24.919,19.226-24.919,39.559c0,20.044,10.563,36.629,24.321,39.452
			c-3.448-12.07-5.323-25.027-5.323-38.513C52.751,92.275,54.851,78.641,58.672,66.009z"/>
		<path fill="none" d="M242.861,144.666c13.035-3.66,22.856-19.772,22.856-39.099c0-19.619-10.121-35.916-23.451-39.247
			c3.761,12.545,5.823,26.073,5.823,40.186C248.088,119.863,246.245,132.696,242.861,144.666z"/>
		<path fill="#F5E19D" d="M237.346,160.346c21.557-0.088,39.014-24.577,39.014-54.778c0-30.255-17.519-54.782-39.13-54.782
			c-0.235,0-0.466,0.019-0.7,0.025c-4.229-9.524-9.495-18.274-15.636-26.007H79.946c-6.153,7.746-11.427,16.514-15.66,26.057
			c-0.678-0.049-1.36-0.075-2.047-0.075c-21.611,0-39.13,24.527-39.13,54.782s17.519,54.782,39.13,54.782
			c0.415,0,0.825-0.026,1.237-0.044c10.198,24.01,27.003,43.249,47.52,54.2H96.89c-6.915,0-12.522,5.606-12.522,12.522v5.009
			c0,6.915,5.606,12.522,12.522,12.522h28.174v20.661H64.02c-4.668,0-8.452,3.784-8.452,8.452c0,4.668,3.784,8.452,8.452,8.452
			h172.799c4.668,0,8.452-3.784,8.452-8.452c0-4.668-3.784-8.452-8.452-8.452h-61.043v-20.661h28.174
			c6.915,0,12.522-5.606,12.522-12.522v-5.009c0-6.915-5.606-12.522-12.522-12.522h-14.107
			C210.348,203.561,227.146,184.337,237.346,160.346z M33.753,105.568c0-20.333,10.871-37.1,24.919-39.559
			c-3.821,12.633-5.921,26.267-5.921,40.498c0,13.487,1.875,26.443,5.323,38.513C44.317,142.197,33.753,125.612,33.753,105.568z
			 M265.717,105.568c0,19.327-9.82,35.439-22.856,39.099c3.384-11.97,5.228-24.804,5.228-38.159c0-14.114-2.062-27.642-5.823-40.186
			C255.595,69.651,265.717,85.949,265.717,105.568z"/>
		<g>
			<defs>
				<path id="SVGID_13_" d="M237.346,160.346c21.557-0.088,39.014-24.577,39.014-54.778c0-30.255-17.519-54.782-39.13-54.782
					c-0.235,0-0.466,0.019-0.7,0.025c-4.229-9.524-9.495-18.274-15.636-26.007H79.946c-6.153,7.746-11.427,16.514-15.66,26.057
					c-0.678-0.049-1.36-0.075-2.047-0.075c-21.611,0-39.13,24.527-39.13,54.782s17.519,54.782,39.13,54.782
					c0.415,0,0.825-0.026,1.237-0.044c10.198,24.01,27.003,43.249,47.52,54.2H96.89c-6.915,0-12.522,5.606-12.522,12.522v5.009
					c0,6.915,5.606,12.522,12.522,12.522h28.174v20.661H64.02c-4.668,0-8.452,3.784-8.452,8.452c0,4.668,3.784,8.452,8.452,8.452
					h172.799c4.668,0,8.452-3.784,8.452-8.452c0-4.668-3.784-8.452-8.452-8.452h-61.043v-20.661h28.174
					c6.915,0,12.522-5.606,12.522-12.522v-5.009c0-6.915-5.606-12.522-12.522-12.522h-14.107
					C210.348,203.561,227.146,184.337,237.346,160.346z M33.753,105.568c0-20.333,10.871-37.1,24.919-39.559
					c-3.821,12.633-5.921,26.267-5.921,40.498c0,13.487,1.875,26.443,5.323,38.513C44.317,142.197,33.753,125.612,33.753,105.568z
					 M265.717,105.568c0,19.327-9.82,35.439-22.856,39.099c3.384-11.97,5.228-24.804,5.228-38.159
					c0-14.114-2.062-27.642-5.823-40.186C255.595,69.651,265.717,85.949,265.717,105.568z"/>
			</defs>
			<clipPath id="SVGID_14_">
				<use xlink:href="#SVGID_13_"  overflow="visible"/>
			</clipPath>
			<path opacity="0.47" clip-path="url(#SVGID_14_)" fill="#9FA0A0" d="M94.796,211.375c0,0-4.07,15.339,50.713,15.339
				s79.825,0.313,79.825,0.313l-3.13,30.365l1.565,7.826h-49.147c0,0,6.261,15.965,74.191,15.339l-2.504,5.948l-196.277-2.504
				C50.031,284.001,45.023,208.245,94.796,211.375z"/>
			<path opacity="0.24" clip-path="url(#SVGID_14_)" fill="#FFFFFF" d="M116.083,18.229c0,0,102.677,18.782,98.921,181.877
				c0,0,111.443-0.939,63.234-153.077C278.238,47.029,161.161-14.014,116.083,18.229z"/>
		</g>
	</g>
	<g>
		<path fill="#79B59A" d="M77.137,207.892c-4.365,7.958-14.628,10.721-14.628,10.721s-3.186-10.14,1.18-18.098
			s14.628-10.721,14.628-10.721S81.502,199.934,77.137,207.892z"/>
		<path fill="#79B59A" d="M52.841,207.199c7.94,4.397,10.661,14.671,10.661,14.671s-10.153,3.145-18.093-1.253
			s-10.661-14.671-10.661-14.671S44.901,202.801,52.841,207.199z"/>
		<path fill="#79B59A" d="M52.481,224.395c9.076-0.105,16.522,7.48,16.522,7.48s-7.269,7.754-16.345,7.858
			c-9.076,0.105-16.522-7.48-16.522-7.48S43.405,224.5,52.481,224.395z"/>
		<path fill="#6CA28B" d="M60.199,244.419c8.282-3.713,18.134,0.276,18.134,0.276s-3.577,10.008-11.859,13.721
			c-8.282,3.713-18.134-0.276-18.134-0.276S51.917,248.131,60.199,244.419z"/>
		<path fill="#79B59A" d="M84.771,224.808c-7.038,5.732-17.587,4.431-17.587,4.431s0.862-10.593,7.9-16.325
			s17.587-4.431,17.587-4.431S91.809,219.076,84.771,224.808z"/>
		<path fill="#6CA28B" d="M93.324,241.323c-8.398,3.444-18.116-0.86-18.116-0.86s3.898-9.888,12.296-13.332
			c8.398-3.444,18.116,0.86,18.116,0.86S101.722,237.879,93.324,241.323z"/>
		
			<path fill="none" stroke="#79B59A" stroke-width="3.7565" stroke-linecap="round" stroke-linejoin="round" stroke-miterlimit="10" d="
			M58.328,199.452c0,0,4.696,69.495,72.939,58.539"/>
	</g>
	<g>
		<path fill="#79B59A" d="M224.425,206.64c4.365,7.958,14.628,10.721,14.628,10.721s3.186-10.14-1.18-18.098
			c-4.365-7.958-14.628-10.721-14.628-10.721S220.06,198.682,224.425,206.64z"/>
		<path fill="#79B59A" d="M248.72,205.946c-7.94,4.397-10.661,14.671-10.661,14.671s10.153,3.145,18.093-1.253
			c7.94-4.397,10.661-14.671,10.661-14.671S256.661,201.549,248.72,205.946z"/>
		<path fill="#79B59A" d="M249.081,223.143c-9.076-0.105-16.522,7.48-16.522,7.48s7.269,7.754,16.345,7.858
			c9.076,0.105,16.522-7.48,16.522-7.48S258.157,223.248,249.081,223.143z"/>
		<path fill="#6CA28B" d="M241.362,243.166c-8.282-3.713-18.134,0.276-18.134,0.276s3.577,10.008,11.859,13.721
			c8.282,3.713,18.134-0.276,18.134-0.276S249.645,246.879,241.362,243.166z"/>
		<path fill="#79B59A" d="M216.791,223.556c7.038,5.732,17.587,4.431,17.587,4.431s-0.862-10.593-7.9-16.325
			s-17.587-4.431-17.587-4.431S209.753,217.824,216.791,223.556z"/>
		<path fill="#6CA28B" d="M208.238,240.071c8.398,3.444,18.116-0.86,18.116-0.86s-3.898-9.888-12.296-13.332
			c-8.398-3.444-18.116,0.86-18.116,0.86S199.84,236.627,208.238,240.071z"/>
		
			<path fill="none" stroke="#79B59A" stroke-width="3.7565" stroke-linecap="round" stroke-linejoin="round" stroke-miterlimit="10" d="
			M243.234,198.2c0,0-4.696,69.495-72.939,58.539"/>
	</g>
	<g>
		<path fill="#79B59A" d="M193.449,232.471c-0.581,9.058,6.602,16.892,6.602,16.892s8.125-6.852,8.706-15.91
			c0.581-9.058-6.602-16.892-6.602-16.892S194.03,223.413,193.449,232.471z"/>
		<path fill="#79B59A" d="M214.33,244.91c-9.06-0.544-16.865,6.67-16.865,6.67s6.885,8.097,15.945,8.642
			c9.06,0.544,16.865-6.67,16.865-6.67S223.39,245.455,214.33,244.91z"/>
		<path fill="#79B59A" d="M205.416,259.62c-7.606-4.954-17.957-2.543-17.957-2.543s1.98,10.442,9.585,15.396
			c7.606,4.954,17.957,2.543,17.957,2.543S213.021,264.574,205.416,259.62z"/>
		<path fill="#79B59A" d="M188.166,272.386c-5.001-7.574-15.456-9.488-15.456-9.488s-2.346,10.366,2.656,17.941
			s15.456,9.488,15.456,9.488S193.167,279.96,188.166,272.386z"/>
		<path fill="#6CA28B" d="M164.973,278.285c-0.984-9.023-9.405-15.507-9.405-15.507s-6.827,8.146-5.844,17.169
			c0.984,9.023,9.405,15.507,9.405,15.507S165.957,287.308,164.973,278.285z"/>
		<path fill="#6CA28B" d="M143.624,276.434c3.641-8.314-0.433-18.131-0.433-18.131s-9.977,3.664-13.618,11.978
			c-3.641,8.314,0.433,18.131,0.433,18.131S139.983,284.748,143.624,276.434z"/>
		<path fill="#79B59A" d="M177.936,242.659c2.869,8.611,12.471,13.168,12.471,13.168s4.951-9.405,2.082-18.016
			c-2.869-8.611-12.471-13.168-12.471-13.168S175.068,234.047,177.936,242.659z"/>
		<path fill="#6CA28B" d="M161.863,252.016c5.243,7.409,15.754,8.985,15.754,8.985s2.01-10.437-3.233-17.846
			c-5.243-7.409-15.754-8.985-15.754-8.985S156.62,244.607,161.863,252.016z"/>
		<path fill="#6CA28B" d="M151.379,248.134c0.279,9.072,8.171,16.191,8.171,16.191s7.44-7.59,7.161-16.663
			s-8.171-16.191-8.171-16.191S151.1,239.062,151.379,248.134z"/>
		<path fill="#6CA28B" d="M134.788,243.126c0.279,9.072,8.171,16.191,8.171,16.191s7.44-7.59,7.161-16.663
			c-0.279-9.072-8.171-16.191-8.171-16.191S134.509,234.053,134.788,243.126z"/>
		
			<path fill="none" stroke="#79B59A" stroke-width="3.7565" stroke-linecap="round" stroke-linejoin="round" stroke-miterlimit="10" d="
			M213.851,235.43c0,0-41.219,56.148-92.954,10.316"/>
	</g>
	<g>
		<path fill="#79B59A" d="M103.997,227.776c0.581,9.058-6.602,16.892-6.602,16.892s-8.125-6.852-8.706-15.91
			s6.602-16.892,6.602-16.892S103.416,218.718,103.997,227.776z"/>
		<path fill="#79B59A" d="M83.116,240.215c9.06-0.544,16.865,6.67,16.865,6.67s-6.885,8.097-15.945,8.642
			c-9.06,0.544-16.865-6.67-16.865-6.67S74.055,240.759,83.116,240.215z"/>
		<path fill="#79B59A" d="M92.03,254.925c7.606-4.954,17.957-2.543,17.957-2.543s-1.98,10.442-9.585,15.396
			s-17.957,2.543-17.957,2.543S84.424,259.879,92.03,254.925z"/>
		<path fill="#79B59A" d="M109.28,267.69c5.001-7.574,15.456-9.488,15.456-9.488s2.346,10.366-2.656,17.941
			c-5.001,7.574-15.456,9.488-15.456,9.488S104.278,275.264,109.28,267.69z"/>
		<path fill="#79B59A" d="M132.473,273.589c0.984-9.023,9.405-15.507,9.405-15.507s6.827,8.146,5.844,17.169
			c-0.984,9.023-9.405,15.507-9.405,15.507S131.489,282.613,132.473,273.589z"/>
		<path fill="#79B59A" d="M153.822,271.738c-3.641-8.314,0.433-18.131,0.433-18.131s9.977,3.664,13.618,11.978
			s-0.433,18.131-0.433,18.131S157.463,280.053,153.822,271.738z"/>
		<path fill="#79B59A" d="M119.509,237.963c-2.869,8.611-12.471,13.168-12.471,13.168s-4.951-9.405-2.082-18.016
			c2.869-8.611,12.471-13.168,12.471-13.168S122.378,229.352,119.509,237.963z"/>
		<path fill="#79B59A" d="M135.583,247.32c-5.243,7.409-15.754,8.985-15.754,8.985s-2.01-10.437,3.233-17.846
			s15.754-8.985,15.754-8.985S140.826,239.911,135.583,247.32z"/>
		<path fill="#79B59A" d="M146.067,243.439c-0.279,9.072-8.171,16.191-8.171,16.191s-7.44-7.59-7.161-16.663
			s8.171-16.191,8.171-16.191S146.346,234.366,146.067,243.439z"/>
		<path fill="#79B59A" d="M162.658,238.43c-0.279,9.072-8.171,16.191-8.171,16.191s-7.44-7.59-7.161-16.663
			s8.171-16.191,8.171-16.191S162.937,229.358,162.658,238.43z"/>
		
			<path fill="none" stroke="#79B59A" stroke-width="3.7565" stroke-linecap="round" stroke-linejoin="round" stroke-miterlimit="10" d="
			M83.595,230.734c0,0,41.219,56.148,92.954,10.316"/>
	</g>
	<polygon fill="#F39800" points="151.36,97.141 161.723,118.139 184.895,121.506 168.128,137.851 172.086,160.93 151.36,150.033 
		130.634,160.93 134.592,137.851 117.824,121.506 140.997,118.139 	"/>
	<polygon fill="#F39800" points="122.11,81.771 125.134,87.898 131.895,88.881 127.003,93.65 128.158,100.384 122.11,97.205 
		116.062,100.384 117.217,93.65 112.324,88.881 119.086,87.898 	"/>
	<polygon fill="#F39800" points="103.11,131.771 106.134,137.898 112.895,138.881 108.003,143.65 109.158,150.384 103.11,147.205 
		97.062,150.384 98.217,143.65 93.324,138.881 100.086,137.898 	"/>
	<polygon fill="#F39800" points="191.11,175.771 194.134,181.898 200.895,182.881 196.003,187.65 197.158,194.384 191.11,191.205 
		185.062,194.384 186.217,187.65 181.324,182.881 188.086,181.898 	"/>
	<polygon fill="#F39800" points="210.11,97.271 213.134,103.398 219.895,104.381 215.003,109.15 216.158,115.884 210.11,112.705 
		204.062,115.884 205.217,109.15 200.324,104.381 207.086,103.398 	"/>
</g>
</svg>
