<?xml version="1.0" encoding="utf-8"?>
<!-- Generator: Adobe Illustrator 17.1.0, SVG Export Plug-In . SVG Version: 6.00 Build 0)  -->
<!DOCTYPE svg PUBLIC "-//W3C//DTD SVG 1.1//EN" "http://www.w3.org/Graphics/SVG/1.1/DTD/svg11.dtd">
<svg version="1.1" id="圖層_1" xmlns="http://www.w3.org/2000/svg" xmlns:xlink="http://www.w3.org/1999/xlink" x="0px" y="0px"
	 viewBox="0 0 1005.435 41.304" enable-background="new 0 0 1005.435 41.304" xml:space="preserve">
<g>
	<path fill="none" stroke="#00AFAD" stroke-width="0.9163" stroke-miterlimit="10" d="M99.776,15.043c0,0,38.625-3,54.578-1
		s18.473,7,28.549,7s22.671-2,25.19-3s33.587-4,40.304-4c6.717,0,41.983,9,41.983,9l17.633,5l17.633-11c0,0,10.076-1,15.954-1
		s17.633,0,21.831,0c4.198,0,10.076,0,14.274,1s10.916,1,10.916,1s5.038,1,9.236,2s16.793,1,16.793,1s25.19,0,29.388,0
		s19.312,0,22.671,0c3.359,0,8.397,0,12.595,0s18.473-1,21.831-2c3.359-1,15.954-2,20.152-3s13.435,0,16.793,1
		c3.359,1,12.595,2,15.954,4c3.359,2,10.916,3,15.954,3c5.038,0,12.595,3,24.35-2s9.236-7,21.831-7s21.831,0,34.426,2
		c12.595,2,31.068,4,31.068,4l12.595-1c0,0,3.359,2,15.954-1c12.595-3,23.511-3,26.869-3s6.717,0,9.236,0s0,2,7.557,2
		c7.557,0,4.198,0,15.114,0s11.755,0,15.114,0c3.359,0,4.198,0,7.557,0c3.359,0,0.84,0,13.435,0c12.595,0,11.755-4,20.992,0
		s10.916,6,15.114,7c4.198,1,7.557,2,10.076,2s1.679-1,7.557-5c5.878-4,11.755-5,11.755-5s2.519-1,6.717-1c4.198,0,8.397,1,8.397,1"
		/>
	<path fill="none" stroke="#00AFAD" stroke-width="0.9163" stroke-miterlimit="10" d="M87.181,16.543c0,0,38.625-3,54.578-1
		s18.473,7,28.549,7s22.671-2,25.19-3s33.587-4,40.304-4c6.717,0,41.983,9,41.983,9l17.633,5l17.633-11c0,0,10.076-1,15.954-1
		s17.633,0,21.831,0s10.076,0,14.274,1s10.916,1,10.916,1s5.038,1,9.236,2c4.198,1,16.793,1,16.793,1s25.19,0,29.388,0
		c4.198,0,19.312,0,22.671,0s8.397,0,12.595,0c4.198,0,18.473-1,21.831-2c3.359-1,15.954-2,20.152-3c4.198-1,13.435,0,16.793,1
		c3.359,1,12.595,2,15.954,4s10.916,3,15.954,3c5.038,0,12.595,3,24.35-2s9.236-7,21.831-7s21.831,0,34.426,2
		c12.595,2,31.068,4,31.068,4l12.595-1c0,0,3.359,2,15.954-1s23.511-3,26.869-3c3.359,0,6.717,0,9.236,0c2.519,0,0,2,7.557,2
		c7.557,0,4.198,0,15.114,0s11.755,0,15.114,0c3.359,0,4.198,0,7.557,0s0.84,0,13.435,0c12.595,0,11.755-4,20.992,0
		c9.236,4,10.916,6,15.114,7c4.198,1,7.557,2,10.076,2s1.679-1,7.557-5c5.878-4,11.755-5,11.755-5s2.519-1,6.717-1
		c4.198,0,8.397,1,8.397,1"/>
	<path fill="none" stroke="#00AFAD" stroke-width="0.9163" stroke-miterlimit="10" d="M126.645,14.543c0,0,38.625-3,54.578-1
		s18.473,7,28.549,7s22.671-2,25.19-3s33.587-4,40.304-4c6.717,0,41.983,9,41.983,9l17.633,5l17.633-11c0,0,10.076-1,15.954-1
		c5.878,0,17.633,0,21.831,0c4.198,0,10.076,0,14.274,1c4.198,1,10.916,1,10.916,1s5.038,1,9.236,2c4.198,1,16.793,1,16.793,1
		s25.19,0,29.388,0s19.312,0,22.671,0c3.359,0,8.397,0,12.595,0s18.473-1,21.831-2c3.359-1,15.954-2,20.152-3
		c4.198-1,13.435,0,16.793,1c3.359,1,12.595,2,15.954,4s10.916,3,15.954,3c5.038,0,12.595,3,24.35-2s9.236-7,21.831-7
		s21.831,0,34.426,2s31.068,4,31.068,4l12.595-1c0,0,3.359,2,15.954-1s23.511-3,26.869-3c3.359,0,6.717,0,9.236,0
		c2.519,0,0,2,7.557,2c7.557,0,4.198,0,15.114,0s11.755,0,15.114,0s4.198,0,7.557,0s0.84,0,13.435,0s11.755-4,20.992,0
		s10.916,6,15.114,7c4.198,1,7.557,2,10.076,2c2.519,0,1.679-1,7.557-5c5.878-4,11.755-5,11.755-5s2.519-1,6.717-1
		c4.198,0,8.397,1,8.397,1"/>
</g>
</svg>
