<?xml version="1.0" encoding="utf-8"?>
<!-- Generator: Adobe Illustrator 17.1.0, SVG Export Plug-In . SVG Version: 6.00 Build 0)  -->
<!DOCTYPE svg PUBLIC "-//W3C//DTD SVG 1.1//EN" "http://www.w3.org/Graphics/SVG/1.1/DTD/svg11.dtd">
<svg version="1.1" id="圖層_1" xmlns="http://www.w3.org/2000/svg" xmlns:xlink="http://www.w3.org/1999/xlink" x="0px" y="0px"
	 viewBox="0 0 300 300" enable-background="new 0 0 300 300" xml:space="preserve">
<g>
	<g>
		<path fill="#00AFAD" d="M247.582,141.428h-68.145c-5.79,0-10.484,4.694-10.484,10.484v10.311h-16.774v-10.311
			c0-5.79-4.694-10.484-10.484-10.484H73.55c-5.79,0-10.484,4.694-10.484,10.484v35.121c0,5.79,4.694,10.484,10.484,10.484h68.145
			c5.79,0,10.484-4.694,10.484-10.484v-10.311h16.774v10.311c0,5.79,4.694,10.484,10.484,10.484h68.145
			c5.79,0,10.484-4.694,10.484-10.484v-35.121C258.066,146.122,253.372,141.428,247.582,141.428z"/>
		<g>
			<defs>
				<path id="SVGID_1_" d="M247.582,141.428h-68.145c-5.79,0-10.484,4.694-10.484,10.484v10.311h-16.774v-10.311
					c0-5.79-4.694-10.484-10.484-10.484H73.55c-5.79,0-10.484,4.694-10.484,10.484v35.121c0,5.79,4.694,10.484,10.484,10.484h68.145
					c5.79,0,10.484-4.694,10.484-10.484v-10.311h16.774v10.311c0,5.79,4.694,10.484,10.484,10.484h68.145
					c5.79,0,10.484-4.694,10.484-10.484v-35.121C258.066,146.122,253.372,141.428,247.582,141.428z"/>
			</defs>
			<clipPath id="SVGID_2_">
				<use xlink:href="#SVGID_1_"  overflow="visible"/>
			</clipPath>
			<polygon clip-path="url(#SVGID_2_)" fill="#009492" points="57.066,139.222 266.066,199.722 50.566,199.722 			"/>
		</g>
		<path fill="#FFFFFF" d="M141.566,179.222c0,5.523-4.477,10-10,10h-49.5c-5.523,0-10-4.477-10-10v-19c0-5.523,4.477-10,10-10h49.5
			c5.523,0,10,4.477,10,10V179.222z"/>
		<path fill="#FFFFFF" d="M249.566,179.222c0,5.523-4.477,10-10,10h-49.5c-5.523,0-10-4.477-10-10v-19c0-5.523,4.477-10,10-10h49.5
			c5.523,0,10,4.477,10,10V179.222z"/>
	</g>
	<path fill="#CCCCCC" d="M90.566,64.722h-46.5c-5.523,0-10,4.477-10,10v43c0,23,24.5,27,24.5,27c-6.014-2.005-7.561-11.15-7.927-17
		h39.927c5.523,0,10-4.477,10-10v-43C100.566,69.199,96.088,64.722,90.566,64.722z"/>
	<path fill="#CCCCCC" d="M209.107,253.888h30.417c3.613,0,6.541-2.929,6.541-6.541v-28.128c0-15.045-16.026-17.662-16.026-17.662
		c3.934,1.311,4.946,7.294,5.185,11.12h-26.118c-3.613,0-6.541,2.929-6.541,6.541v28.128
		C202.566,250.959,205.494,253.888,209.107,253.888z"/>
	<path fill="#CCCCCC" d="M143.684,89.722h-26.737c-3.176,0-5.75,2.574-5.75,5.75v24.725c0,13.225,14.088,15.525,14.088,15.525
		c-3.458-1.153-4.348-6.411-4.558-9.775h22.958c3.176,0,5.75-2.574,5.75-5.75V95.472C149.434,92.296,146.86,89.722,143.684,89.722z"
		/>
	<path fill="#CCCCCC" d="M209.434,54.722h46.5c5.523,0,10,4.477,10,10v43c0,23-24.5,27-24.5,27c6.014-2.005,7.561-11.15,7.927-17
		h-39.927c-5.523,0-10-4.477-10-10v-43C199.434,59.199,203.912,54.722,209.434,54.722z"/>
	<path fill="#CCCCCC" d="M138.053,251.722h-26.738c-3.176,0-5.75-2.574-5.75-5.75v-24.725c0-13.225,14.088-15.525,14.088-15.525
		c-3.458,1.153-4.348,6.411-4.558,9.775h22.958c3.176,0,5.75,2.574,5.75,5.75v24.725
		C143.803,249.148,141.229,251.722,138.053,251.722z"/>
	<text transform="matrix(1 0 0 1 47.067 98.8566)" fill="#FFFFFF" font-family="'DFYuan-Md-HKP-BF'" font-size="56.5">...</text>
	<text transform="matrix(1 0 0 1 213.067 91.3566)" fill="#FFFFFF" font-family="'DFYuan-Md-HKP-BF'" font-size="56.5">...</text>
	<text transform="matrix(1 0 0 1 215.0676 235.0545)" fill="#FFFFFF" font-family="'DFYuan-Md-HKP-BF'" font-size="32.2208">...</text>
	<text transform="matrix(1 0 0 1 113.5676 234.5545)" fill="#FFFFFF" font-family="'DFYuan-Md-HKP-BF'" font-size="32.2208">...</text>
	<text transform="matrix(1 0 0 1 120.0676 109.5545)" fill="#FFFFFF" font-family="'DFYuan-Md-HKP-BF'" font-size="32.2208">...</text>
</g>
</svg>
