<?xml version="1.0" encoding="utf-8"?>
<!-- Generator: Adobe Illustrator 17.1.0, SVG Export Plug-In . SVG Version: 6.00 Build 0)  -->
<!DOCTYPE svg PUBLIC "-//W3C//DTD SVG 1.1//EN" "http://www.w3.org/Graphics/SVG/1.1/DTD/svg11.dtd">
<svg version="1.1" id="圖層_1" xmlns="http://www.w3.org/2000/svg" xmlns:xlink="http://www.w3.org/1999/xlink" x="0px" y="0px"
	 viewBox="0 0 1240 1240" enable-background="new 0 0 1240 1240" xml:space="preserve">
<g>
	<g>
		<path fill="#F1AB40" d="M708.999,670.724c22.097-19.344,36.072-48.376,36.072-80.05c0-58.284-47.248-105.855-105.536-105.855
			S533.998,531.91,533.998,590.195c0,31.674,13.975,61.264,36.072,80.608c-44.814,24.581-75.202,74.375-75.202,128.109h289.333
			C784.201,745.182,753.812,695.305,708.999,670.724z"/>
		<circle fill="#FFFFFF" cx="589.732" cy="572.252" r="11.859"/>
		<circle fill="#FFFFFF" cx="689.337" cy="572.252" r="11.859"/>
		<path fill="#FFFFFF" d="M684.596,617.049c0,20.667-19.377,30.831-43.28,30.831c-23.903,0-43.28-10.164-43.28-30.831H684.596z"/>
	</g>
	
		<circle fill="none" stroke="#FFFFFF" stroke-width="20" stroke-linecap="round" stroke-linejoin="round" stroke-miterlimit="10" stroke-dasharray="36" cx="640.629" cy="640.592" r="341"/>
	<g>
		<circle fill="#FFFFFF" cx="929.963" cy="951.117" r="141.567"/>
		<g>
			<path fill="#F1AB40" d="M911.214,964.46c9.052-7.924,14.777-20.324,14.777-33.298c0-23.874-19.356-43.615-43.231-43.615
				c-23.874,0-43.231,19.162-43.231,43.036c0,12.974,5.725,26.044,14.777,33.968c-18.356,10.069-30.806,28.627-30.806,53.427h118.52
				C942.016,993.182,929.57,974.528,911.214,964.46z"/>
			<circle fill="#FFFFFF" cx="862.358" cy="923.106" r="4.857"/>
			<circle fill="#FFFFFF" cx="903.158" cy="923.106" r="4.857"/>
			<path fill="#FFFFFF" d="M901.215,943.582c0,8.267-7.936,12.627-17.728,12.627s-17.728-4.361-17.728-12.627H901.215z"/>
		</g>
		<g>
			<path fill="#F1AB40" d="M1011.522,964.46c9.052-7.924,14.777-20.324,14.777-33.298c0-23.874-19.356-43.615-43.23-43.615
				s-43.231,19.162-43.231,43.036c0,12.974,5.725,26.044,14.777,33.968c-18.356,10.069-30.806,28.627-30.806,53.427h118.519
				C1042.327,993.182,1029.878,974.528,1011.522,964.46z"/>
			<circle fill="#FFFFFF" cx="962.666" cy="923.106" r="4.857"/>
			<circle fill="#FFFFFF" cx="1003.47" cy="923.106" r="4.857"/>
			<path fill="#FFFFFF" d="M1001.527,943.582c0,8.267-7.936,12.627-17.728,12.627c-9.792,0-17.728-4.361-17.728-12.627H1001.527z"/>
		</g>
	</g>
	<g>
		<circle fill="#FFFFFF" cx="285.163" cy="851.917" r="141.567"/>
		<g>
			<path fill="#F1AB40" d="M266.414,865.26c9.052-7.924,14.777-20.324,14.777-33.298c0-23.874-19.356-43.615-43.231-43.615
				s-43.231,19.162-43.231,43.036c0,12.974,5.725,26.044,14.777,33.968C191.15,875.42,178.7,893.978,178.7,918.778h118.52
				C297.216,893.982,284.77,875.328,266.414,865.26z"/>
			<circle fill="#FFFFFF" cx="217.558" cy="823.906" r="4.857"/>
			<circle fill="#FFFFFF" cx="258.358" cy="823.906" r="4.857"/>
			<path fill="#FFFFFF" d="M256.415,844.382c0,8.267-7.936,12.627-17.728,12.627s-17.728-4.361-17.728-12.627H256.415z"/>
		</g>
		<g>
			<path fill="#F1AB40" d="M366.722,865.26c9.052-7.924,14.777-20.324,14.777-33.298c0-23.874-19.356-43.615-43.231-43.615
				c-23.874,0-43.231,19.162-43.231,43.036c0,12.974,5.725,26.044,14.777,33.968c-18.356,10.069-30.806,28.627-30.806,53.427
				h118.519C397.527,893.982,385.078,875.328,366.722,865.26z"/>
			<circle fill="#FFFFFF" cx="317.866" cy="823.906" r="4.857"/>
			<circle fill="#FFFFFF" cx="358.67" cy="823.906" r="4.857"/>
			<path fill="#FFFFFF" d="M356.727,844.382c0,8.267-7.936,12.627-17.728,12.627s-17.728-4.361-17.728-12.627H356.727z"/>
		</g>
	</g>
	<g>
		<circle fill="#FFFFFF" cx="363.696" cy="322.851" r="184.967"/>
		<g>
			<path fill="#F1AB40" d="M339.963,291.053c9.808-8.585,16.013-21.688,16.013-35.749c0-25.871-20.973-47.095-46.847-47.095
				c-25.875,0-46.847,20.849-46.847,46.723c0,14.062,6.204,27.594,16.013,36.183c-19.894,10.912-33.381,32.467-33.381,57.267
				h128.431C373.343,323.582,359.856,301.965,339.963,291.053z"/>
			<circle fill="#FFFFFF" cx="287.019" cy="246.913" r="5.262"/>
			<circle fill="#FFFFFF" cx="331.237" cy="246.913" r="5.262"/>
			<path fill="#FFFFFF" d="M329.129,265.715c0,12.4-8.601,13.685-19.212,13.685c-10.61,0-19.212-1.285-19.212-13.685H329.129z"/>
		</g>
		<g>
			<path fill="#F1AB40" d="M448.665,291.053c9.808-8.585,16.013-21.688,16.013-35.749c0-25.871-20.973-47.095-46.847-47.095
				c-25.875,0-46.847,20.849-46.847,46.723c0,14.062,6.204,27.594,16.013,36.183c-19.894,10.912-33.381,32.467-33.381,57.267
				h128.431C482.046,323.582,468.555,301.965,448.665,291.053z"/>
			<circle fill="#FFFFFF" cx="395.721" cy="246.913" r="5.262"/>
			<circle fill="#FFFFFF" cx="439.935" cy="246.913" r="5.262"/>
			<path fill="#FFFFFF" d="M437.832,265.715c0,12.4-8.601,13.685-19.212,13.685c-10.61,0-19.212-1.285-19.212-13.685H437.832z"/>
		</g>
		<g>
			<path fill="#F1AB40" d="M396.064,374.463c9.808-8.585,16.013-21.316,16.013-35.377c0-25.871-20.973-46.909-46.847-46.909
				c-25.871,0-46.847,20.944-46.847,46.814c0,14.062,6.204,26.896,16.013,35.485c-19.894,10.912-33.381,35.902-33.381,56.569
				h128.431C429.449,410.382,415.958,385.375,396.064,374.463z"/>
			<circle fill="#FFFFFF" cx="343.125" cy="331.068" r="5.262"/>
			<circle fill="#FFFFFF" cx="387.339" cy="331.068" r="5.262"/>
			<path fill="#FFFFFF" d="M385.235,352.515c0,8.267-8.601,13.685-19.212,13.685s-19.212-5.419-19.212-13.685H385.235z"/>
		</g>
	</g>
	<g>
		<circle fill="#FFFFFF" cx="1014.651" cy="608.609" r="79.567"/>
		<g>
			<path fill="#F1AB40" d="M1034.697,617.702c6.084-5.324,9.928-13.946,9.928-22.663c0-16.046-13.008-29.454-29.049-29.454
				c-16.046,0-29.049,12.805-29.049,28.847c0,8.717,3.848,18.046,9.928,23.37c-12.334,6.766-20.7,19.91-20.7,36.444h79.641
				C1055.397,637.715,1047.031,624.468,1034.697,617.702z"/>
			<circle fill="#FFFFFF" cx="1001.866" cy="589.335" r="3.265"/>
			<circle fill="#FFFFFF" cx="1029.283" cy="589.335" r="3.265"/>
			<path fill="#FFFFFF" d="M1027.976,600.515c0,8.267-5.332,8.486-11.912,8.486s-11.912-0.219-11.912-8.486H1027.976z"/>
		</g>
	</g>
	<g>
		<circle fill="#FFFFFF" cx="783.184" cy="290.342" r="79.567"/>
		<g>
			<path fill="#F1AB40" d="M803.231,299.435c6.084-5.324,9.928-13.946,9.928-22.663c0-16.046-13.008-29.454-29.049-29.454
				c-16.046,0-29.049,12.805-29.049,28.847c0,8.717,3.848,18.046,9.928,23.37c-12.334,6.766-20.7,19.91-20.7,36.444h79.641
				C823.93,319.449,815.565,306.201,803.231,299.435z"/>
			<circle fill="#FFFFFF" cx="770.4" cy="271.068" r="3.265"/>
			<circle fill="#FFFFFF" cx="797.816" cy="271.068" r="3.265"/>
			<path fill="#FFFFFF" d="M796.51,282.249c0,8.267-5.332,8.486-11.912,8.486s-11.912-0.219-11.912-8.486H796.51z"/>
		</g>
	</g>
	<g>
		<circle fill="#FFFFFF" cx="605.451" cy="1017.809" r="79.567"/>
		<g>
			<path fill="#F1AB40" d="M625.497,1026.902c6.084-5.324,9.928-13.946,9.928-22.663c0-16.046-13.008-29.454-29.049-29.454
				c-16.046,0-29.049,12.805-29.049,28.847c0,8.717,3.848,18.046,9.928,23.37c-12.334,6.766-20.7,19.91-20.7,36.444h79.641
				C646.197,1046.915,637.831,1033.668,625.497,1026.902z"/>
			<circle fill="#FFFFFF" cx="592.666" cy="998.535" r="3.265"/>
			<circle fill="#FFFFFF" cx="620.083" cy="998.535" r="3.265"/>
			<path fill="#FFFFFF" d="M618.776,1009.715c0,8.267-5.332,8.486-11.912,8.486s-11.912-0.219-11.912-8.486H618.776z"/>
		</g>
	</g>
</g>
</svg>
